G04 #@! TF.GenerationSoftware,KiCad,Pcbnew,(6.0.0)*
G04 #@! TF.CreationDate,2022-01-19T21:14:50+07:00*
G04 #@! TF.ProjectId,NixieClock,4e697869-6543-46c6-9f63-6b2e6b696361,rev?*
G04 #@! TF.SameCoordinates,Original*
G04 #@! TF.FileFunction,Paste,Bot*
G04 #@! TF.FilePolarity,Positive*
%FSLAX46Y46*%
G04 Gerber Fmt 4.6, Leading zero omitted, Abs format (unit mm)*
G04 Created by KiCad (PCBNEW (6.0.0)) date 2022-01-19 21:14:50*
%MOMM*%
%LPD*%
G01*
G04 APERTURE LIST*
G04 Aperture macros list*
%AMRoundRect*
0 Rectangle with rounded corners*
0 $1 Rounding radius*
0 $2 $3 $4 $5 $6 $7 $8 $9 X,Y pos of 4 corners*
0 Add a 4 corners polygon primitive as box body*
4,1,4,$2,$3,$4,$5,$6,$7,$8,$9,$2,$3,0*
0 Add four circle primitives for the rounded corners*
1,1,$1+$1,$2,$3*
1,1,$1+$1,$4,$5*
1,1,$1+$1,$6,$7*
1,1,$1+$1,$8,$9*
0 Add four rect primitives between the rounded corners*
20,1,$1+$1,$2,$3,$4,$5,0*
20,1,$1+$1,$4,$5,$6,$7,0*
20,1,$1+$1,$6,$7,$8,$9,0*
20,1,$1+$1,$8,$9,$2,$3,0*%
G04 Aperture macros list end*
G04 #@! TA.AperFunction,Profile*
%ADD10C,0.050000*%
G04 #@! TD*
%ADD11RoundRect,0.150000X0.150000X-0.587500X0.150000X0.587500X-0.150000X0.587500X-0.150000X-0.587500X0*%
%ADD12RoundRect,0.250000X-0.350000X-0.450000X0.350000X-0.450000X0.350000X0.450000X-0.350000X0.450000X0*%
%ADD13RoundRect,0.250000X-0.250000X-2.500000X0.250000X-2.500000X0.250000X2.500000X-0.250000X2.500000X0*%
%ADD14RoundRect,0.250000X-0.550000X-1.250000X0.550000X-1.250000X0.550000X1.250000X-0.550000X1.250000X0*%
%ADD15RoundRect,0.150000X-0.150000X0.825000X-0.150000X-0.825000X0.150000X-0.825000X0.150000X0.825000X0*%
%ADD16RoundRect,0.250000X-0.625000X0.400000X-0.625000X-0.400000X0.625000X-0.400000X0.625000X0.400000X0*%
%ADD17RoundRect,0.250000X0.625000X-0.400000X0.625000X0.400000X-0.625000X0.400000X-0.625000X-0.400000X0*%
G04 APERTURE END LIST*
D10*
X45700000Y-80300000D02*
X19700000Y-80300000D01*
X19700000Y-80300000D02*
X19700000Y-28300000D01*
X19700000Y-28300000D02*
X45700000Y-28300000D01*
X45700000Y-28300000D02*
X45700000Y-80300000D01*
D11*
X39950000Y-64637500D03*
X38050000Y-64637500D03*
X39000000Y-62762500D03*
D12*
X38000000Y-68700000D03*
X40000000Y-68700000D03*
D13*
X24000000Y-75000000D03*
X26000000Y-75000000D03*
X28000000Y-75000000D03*
X30000000Y-75000000D03*
X32000000Y-75000000D03*
X34000000Y-75000000D03*
X36000000Y-75000000D03*
X38000000Y-75000000D03*
X40000000Y-75000000D03*
X42000000Y-75000000D03*
D14*
X21600000Y-77250000D03*
X44400000Y-77250000D03*
D12*
X38000000Y-66700000D03*
X40000000Y-66700000D03*
D15*
X22555000Y-63525000D03*
X23825000Y-63525000D03*
X25095000Y-63525000D03*
X26365000Y-63525000D03*
X27635000Y-63525000D03*
X28905000Y-63525000D03*
X30175000Y-63525000D03*
X31445000Y-63525000D03*
X31445000Y-68475000D03*
X30175000Y-68475000D03*
X28905000Y-68475000D03*
X27635000Y-68475000D03*
X26365000Y-68475000D03*
X25095000Y-68475000D03*
X23825000Y-68475000D03*
X22555000Y-68475000D03*
D16*
X42200000Y-41850000D03*
X42200000Y-44950000D03*
D17*
X42200000Y-39950000D03*
X42200000Y-36850000D03*
M02*
