M48
; DRILL file {KiCad (6.0.0)} date Wed Jan 19 20:49:42 2022
; FORMAT={-:-/ absolute / metric / decimal}
; #@! TF.CreationDate,2022-01-19T20:49:42+07:00
; #@! TF.GenerationSoftware,Kicad,Pcbnew,(6.0.0)
; #@! TF.FileFunction,Plated,1,2,PTH
FMAT,2
METRIC
; #@! TA.AperFunction,Plated,PTH,ViaDrill
T1C0.300
; #@! TA.AperFunction,Plated,PTH,ViaDrill
T2C0.400
; #@! TA.AperFunction,Plated,PTH,ComponentDrill
T3C0.700
; #@! TA.AperFunction,Plated,PTH,ComponentDrill
T4C0.800
; #@! TA.AperFunction,Plated,PTH,ComponentDrill
T5C1.250
; #@! TA.AperFunction,Plated,PTH,ViaDrill
T6C2.600
%
G90
G05
T1
X21.2Y-72.9
X21.2Y-73.9
X22.2Y-72.9
X22.2Y-73.9
X35.0Y-70.2
X35.0Y-71.3
X36.9Y-63.1
X36.9Y-64.0
X37.8Y-63.1
X43.0Y-68.0
X43.0Y-69.0
X43.0Y-70.0
X43.0Y-71.0
X44.0Y-68.0
X44.0Y-69.0
X44.0Y-70.0
X44.0Y-71.0
T2
X22.6Y-70.8
X23.186Y-61.952
X24.0Y-71.0
X24.4Y-62.0
X26.8Y-45.2
X27.9Y-44.7
X27.9Y-50.0
X29.1Y-48.6
X31.4Y-71.0
X31.9Y-45.0
X32.845Y-64.872
X33.6Y-65.6
X34.4Y-66.4
X35.6Y-63.1
X37.812Y-70.142
T3
X36.99Y-48.7
X44.61Y-48.7
T4
X24.225Y-52.28
X24.225Y-59.9
X26.765Y-52.28
X26.765Y-59.9
X29.305Y-52.28
X29.305Y-59.9
X31.845Y-52.28
X31.845Y-59.9
X34.385Y-52.28
X34.385Y-59.9
X36.925Y-52.28
X36.925Y-59.9
X39.465Y-52.28
X39.465Y-59.9
X42.005Y-52.28
X42.005Y-59.9
T5
X28.65Y-38.9
X29.286Y-41.275
X29.286Y-36.525
X31.025Y-43.014
X31.025Y-34.786
X33.4Y-43.65
X35.775Y-43.014
X35.775Y-34.786
X37.514Y-41.275
X37.514Y-36.525
X38.15Y-38.9
T6
X23.0Y-32.0
X43.0Y-32.0
X43.0Y-65.0
T0
M30
