G04 #@! TF.GenerationSoftware,KiCad,Pcbnew,(6.0.0)*
G04 #@! TF.CreationDate,2022-01-19T21:14:50+07:00*
G04 #@! TF.ProjectId,NixieClock,4e697869-6543-46c6-9f63-6b2e6b696361,rev?*
G04 #@! TF.SameCoordinates,Original*
G04 #@! TF.FileFunction,Copper,L2,Bot*
G04 #@! TF.FilePolarity,Positive*
%FSLAX46Y46*%
G04 Gerber Fmt 4.6, Leading zero omitted, Abs format (unit mm)*
G04 Created by KiCad (PCBNEW (6.0.0)) date 2022-01-19 21:14:50*
%MOMM*%
%LPD*%
G01*
G04 APERTURE LIST*
G04 Aperture macros list*
%AMRoundRect*
0 Rectangle with rounded corners*
0 $1 Rounding radius*
0 $2 $3 $4 $5 $6 $7 $8 $9 X,Y pos of 4 corners*
0 Add a 4 corners polygon primitive as box body*
4,1,4,$2,$3,$4,$5,$6,$7,$8,$9,$2,$3,0*
0 Add four circle primitives for the rounded corners*
1,1,$1+$1,$2,$3*
1,1,$1+$1,$4,$5*
1,1,$1+$1,$6,$7*
1,1,$1+$1,$8,$9*
0 Add four rect primitives between the rounded corners*
20,1,$1+$1,$2,$3,$4,$5,0*
20,1,$1+$1,$4,$5,$6,$7,0*
20,1,$1+$1,$6,$7,$8,$9,0*
20,1,$1+$1,$8,$9,$2,$3,0*%
G04 Aperture macros list end*
G04 #@! TA.AperFunction,Profile*
%ADD10C,0.050000*%
G04 #@! TD*
G04 #@! TA.AperFunction,ComponentPad*
%ADD11C,1.500000*%
G04 #@! TD*
G04 #@! TA.AperFunction,ComponentPad*
%ADD12R,1.600000X1.600000*%
G04 #@! TD*
G04 #@! TA.AperFunction,ComponentPad*
%ADD13O,1.600000X1.600000*%
G04 #@! TD*
G04 #@! TA.AperFunction,ComponentPad*
%ADD14C,1.400000*%
G04 #@! TD*
G04 #@! TA.AperFunction,ComponentPad*
%ADD15O,1.400000X1.400000*%
G04 #@! TD*
G04 #@! TA.AperFunction,SMDPad,CuDef*
%ADD16RoundRect,0.150000X0.150000X-0.587500X0.150000X0.587500X-0.150000X0.587500X-0.150000X-0.587500X0*%
G04 #@! TD*
G04 #@! TA.AperFunction,SMDPad,CuDef*
%ADD17RoundRect,0.250000X-0.350000X-0.450000X0.350000X-0.450000X0.350000X0.450000X-0.350000X0.450000X0*%
G04 #@! TD*
G04 #@! TA.AperFunction,SMDPad,CuDef*
%ADD18RoundRect,0.250000X-0.250000X-2.500000X0.250000X-2.500000X0.250000X2.500000X-0.250000X2.500000X0*%
G04 #@! TD*
G04 #@! TA.AperFunction,SMDPad,CuDef*
%ADD19RoundRect,0.250000X-0.550000X-1.250000X0.550000X-1.250000X0.550000X1.250000X-0.550000X1.250000X0*%
G04 #@! TD*
G04 #@! TA.AperFunction,SMDPad,CuDef*
%ADD20RoundRect,0.150000X-0.150000X0.825000X-0.150000X-0.825000X0.150000X-0.825000X0.150000X0.825000X0*%
G04 #@! TD*
G04 #@! TA.AperFunction,SMDPad,CuDef*
%ADD21RoundRect,0.250000X-0.625000X0.400000X-0.625000X-0.400000X0.625000X-0.400000X0.625000X0.400000X0*%
G04 #@! TD*
G04 #@! TA.AperFunction,SMDPad,CuDef*
%ADD22RoundRect,0.250000X0.625000X-0.400000X0.625000X0.400000X-0.625000X0.400000X-0.625000X-0.400000X0*%
G04 #@! TD*
G04 #@! TA.AperFunction,ViaPad*
%ADD23C,3.000000*%
G04 #@! TD*
G04 #@! TA.AperFunction,ViaPad*
%ADD24C,0.800000*%
G04 #@! TD*
G04 #@! TA.AperFunction,Conductor*
%ADD25C,0.250000*%
G04 #@! TD*
G04 APERTURE END LIST*
D10*
X45700000Y-80300000D02*
X19700000Y-80300000D01*
X19700000Y-80300000D02*
X19700000Y-28300000D01*
X19700000Y-28300000D02*
X45700000Y-28300000D01*
X45700000Y-28300000D02*
X45700000Y-80300000D01*
D11*
X31025000Y-34786000D03*
X29286190Y-36524671D03*
X28649671Y-38899810D03*
X29286000Y-41275000D03*
X31024671Y-43013810D03*
X33399810Y-43650329D03*
X35775000Y-43014000D03*
X37513810Y-41275329D03*
X38150329Y-38900190D03*
X37514000Y-36525000D03*
X35775329Y-34786190D03*
D12*
X24225000Y-59900000D03*
D13*
X26765000Y-59900000D03*
X29305000Y-59900000D03*
X31845000Y-59900000D03*
X34385000Y-59900000D03*
X36925000Y-59900000D03*
X39465000Y-59900000D03*
X42005000Y-59900000D03*
X42005000Y-52280000D03*
X39465000Y-52280000D03*
X36925000Y-52280000D03*
X34385000Y-52280000D03*
X31845000Y-52280000D03*
X29305000Y-52280000D03*
X26765000Y-52280000D03*
X24225000Y-52280000D03*
D14*
X36990000Y-48700000D03*
D15*
X44610000Y-48700000D03*
D16*
X39950000Y-64637500D03*
X38050000Y-64637500D03*
X39000000Y-62762500D03*
D17*
X38000000Y-68700000D03*
X40000000Y-68700000D03*
D18*
X24000000Y-75000000D03*
X26000000Y-75000000D03*
X28000000Y-75000000D03*
X30000000Y-75000000D03*
X32000000Y-75000000D03*
X34000000Y-75000000D03*
X36000000Y-75000000D03*
X38000000Y-75000000D03*
X40000000Y-75000000D03*
X42000000Y-75000000D03*
D19*
X21600000Y-77250000D03*
X44400000Y-77250000D03*
D17*
X38000000Y-66700000D03*
X40000000Y-66700000D03*
D20*
X22555000Y-63525000D03*
X23825000Y-63525000D03*
X25095000Y-63525000D03*
X26365000Y-63525000D03*
X27635000Y-63525000D03*
X28905000Y-63525000D03*
X30175000Y-63525000D03*
X31445000Y-63525000D03*
X31445000Y-68475000D03*
X30175000Y-68475000D03*
X28905000Y-68475000D03*
X27635000Y-68475000D03*
X26365000Y-68475000D03*
X25095000Y-68475000D03*
X23825000Y-68475000D03*
X22555000Y-68475000D03*
D21*
X42200000Y-41850000D03*
X42200000Y-44950000D03*
D22*
X42200000Y-39950000D03*
X42200000Y-36850000D03*
D23*
X43000000Y-32000000D03*
X43000000Y-65000000D03*
X23000000Y-32000000D03*
D24*
X31900000Y-45000000D03*
X27900000Y-50000000D03*
X27899671Y-44699671D03*
X29100000Y-48600000D03*
X26800000Y-45200000D03*
X24400000Y-62000000D03*
X23185833Y-61952211D03*
X37812389Y-70141513D03*
X35600000Y-63100000D03*
X22600000Y-70800000D03*
X31400000Y-71000000D03*
X24000000Y-71000000D03*
X22200000Y-72900000D03*
X35000000Y-70200000D03*
X36900000Y-63100000D03*
X22200000Y-73900000D03*
X44000000Y-69000000D03*
X43000000Y-71000000D03*
X43000000Y-68000000D03*
X21200000Y-72900000D03*
X43000000Y-70000000D03*
X44000000Y-68000000D03*
X36900000Y-64000000D03*
X21200000Y-73900000D03*
X37800000Y-63100000D03*
X44000000Y-70000000D03*
X35000000Y-71300000D03*
X43000000Y-69000000D03*
X44000000Y-71000000D03*
X34400000Y-66400000D03*
X33600000Y-65600000D03*
X32845090Y-64872300D03*
D25*
X40136190Y-34786190D02*
X42200000Y-36850000D01*
X35775329Y-34786190D02*
X40136190Y-34786190D01*
X27800000Y-47400000D02*
X38500000Y-47400000D01*
X40150969Y-38101309D02*
X38574660Y-36525000D01*
X38574660Y-36525000D02*
X37514000Y-36525000D01*
X40150969Y-45749031D02*
X40150969Y-38101309D01*
X38500000Y-47400000D02*
X40150969Y-45749031D01*
X24225000Y-52280000D02*
X24225000Y-50975000D01*
X24225000Y-50975000D02*
X27800000Y-47400000D01*
X29286000Y-41275000D02*
X29286000Y-43686000D01*
X30600000Y-45000000D02*
X31900000Y-45000000D01*
X29286000Y-43686000D02*
X30600000Y-45000000D01*
X42005000Y-52280000D02*
X40680489Y-50955489D01*
X27899671Y-44999671D02*
X27900000Y-45000000D01*
X28649671Y-38899810D02*
X27899671Y-39649810D01*
X27899671Y-39649810D02*
X27899671Y-44699671D01*
X40680489Y-50955489D02*
X28855489Y-50955489D01*
X28855489Y-50955489D02*
X27900000Y-50000000D01*
X27899671Y-44699671D02*
X27899671Y-44999671D01*
X29100000Y-49600000D02*
X29100000Y-48600000D01*
X43329511Y-51731368D02*
X41822654Y-50224511D01*
X29800000Y-50224511D02*
X29100000Y-49600000D01*
X43329511Y-58575489D02*
X43329511Y-51731368D01*
X42005000Y-59900000D02*
X43329511Y-58575489D01*
X41822654Y-50224511D02*
X29800000Y-50224511D01*
X28114000Y-34786000D02*
X31025000Y-34786000D01*
X26800000Y-45200000D02*
X26800000Y-36100000D01*
X26800000Y-36100000D02*
X28114000Y-34786000D01*
X23825000Y-63525000D02*
X23825000Y-62575000D01*
X23825000Y-62575000D02*
X24400000Y-62000000D01*
X22555000Y-63525000D02*
X22555000Y-62583044D01*
X22555000Y-63525000D02*
X22555000Y-63144402D01*
X22555000Y-62583044D02*
X23185833Y-61952211D01*
X22555000Y-63144402D02*
X22600000Y-63099402D01*
X22555000Y-70755000D02*
X22600000Y-70800000D01*
X34385000Y-59900000D02*
X34385000Y-61885000D01*
X38000000Y-75000000D02*
X38000000Y-70329124D01*
X38000000Y-70329124D02*
X37812389Y-70141513D01*
X34385000Y-61885000D02*
X35600000Y-63100000D01*
X22555000Y-68475000D02*
X22555000Y-70755000D01*
X29645000Y-62100000D02*
X31845000Y-59900000D01*
X25737280Y-62882720D02*
X25737280Y-62502122D01*
X26139402Y-62100000D02*
X29645000Y-62100000D01*
X25095000Y-63525000D02*
X25737280Y-62882720D01*
X25737280Y-62502122D02*
X26139402Y-62100000D01*
X23825000Y-68094402D02*
X23825000Y-68475000D01*
X27980490Y-61224510D02*
X22575490Y-61224510D01*
X21600000Y-65869402D02*
X23825000Y-68094402D01*
X22575490Y-61224510D02*
X21600000Y-62200000D01*
X29305000Y-59900000D02*
X27980490Y-61224510D01*
X21600000Y-62200000D02*
X21600000Y-65869402D01*
X31445000Y-70955000D02*
X31400000Y-71000000D01*
X31445000Y-68475000D02*
X31445000Y-70955000D01*
X24000000Y-75000000D02*
X24000000Y-71000000D01*
X25095000Y-70995000D02*
X25095000Y-68475000D01*
X26000000Y-71900000D02*
X25095000Y-70995000D01*
X26000000Y-75000000D02*
X26000000Y-71900000D01*
X28000000Y-75000000D02*
X28000000Y-72700000D01*
X28000000Y-72700000D02*
X28905000Y-71795000D01*
X28905000Y-71795000D02*
X28905000Y-68475000D01*
X30000000Y-75000000D02*
X30000000Y-71800000D01*
X30100000Y-68550000D02*
X30100000Y-71700000D01*
X30175000Y-68475000D02*
X30100000Y-68550000D01*
X30000000Y-71800000D02*
X30100000Y-71700000D01*
X32400000Y-71600000D02*
X32400000Y-67600000D01*
X32400000Y-67600000D02*
X31972280Y-67172280D01*
X28327720Y-67172280D02*
X27635000Y-67865000D01*
X32000000Y-75000000D02*
X32000000Y-72000000D01*
X31972280Y-67172280D02*
X28327720Y-67172280D01*
X27635000Y-67865000D02*
X27635000Y-68475000D01*
X32000000Y-72000000D02*
X32400000Y-71600000D01*
X26365000Y-68475000D02*
X26365000Y-67835000D01*
X26365000Y-67835000D02*
X27600000Y-66600000D01*
X32200000Y-66600000D02*
X33952711Y-68352711D01*
X33952711Y-74952711D02*
X34000000Y-75000000D01*
X33952711Y-68352711D02*
X33952711Y-74952711D01*
X27600000Y-66600000D02*
X32200000Y-66600000D01*
X36000000Y-65900000D02*
X33625000Y-63525000D01*
X38050000Y-64637500D02*
X38050000Y-66650000D01*
X36000000Y-75000000D02*
X36000000Y-65900000D01*
X33625000Y-63525000D02*
X31445000Y-63525000D01*
X38050000Y-66650000D02*
X38000000Y-66700000D01*
X40800480Y-43349040D02*
X40900000Y-43249520D01*
X45000000Y-72000000D02*
X45000000Y-50821721D01*
X40900000Y-41250000D02*
X40900000Y-43200000D01*
X42200000Y-39950000D02*
X40900000Y-41250000D01*
X40800480Y-46622201D02*
X40800480Y-43349040D01*
X40900000Y-43200000D02*
X40949520Y-43249520D01*
X45000000Y-50821721D02*
X40800480Y-46622201D01*
X42000000Y-75000000D02*
X45000000Y-72000000D01*
X42637500Y-62762500D02*
X44000000Y-61400000D01*
X37390000Y-49000000D02*
X37390000Y-48700000D01*
X37390000Y-48700000D02*
X41216691Y-48700000D01*
X39000000Y-62762500D02*
X42637500Y-62762500D01*
X41216691Y-48700000D02*
X44000000Y-51483309D01*
X44000000Y-51483309D02*
X44000000Y-61400000D01*
X42200000Y-44950000D02*
X44700000Y-47450000D01*
X44700000Y-48690000D02*
X45010000Y-49000000D01*
X44700000Y-47450000D02*
X44700000Y-48690000D01*
X39950000Y-68650000D02*
X40000000Y-68700000D01*
X39950000Y-64637500D02*
X39950000Y-68650000D01*
X26365000Y-63905598D02*
X28587103Y-66127701D01*
X26365000Y-63525000D02*
X26365000Y-63905598D01*
X33000000Y-66400000D02*
X34400000Y-66400000D01*
X28587103Y-66127701D02*
X32727701Y-66127701D01*
X32727701Y-66127701D02*
X33000000Y-66400000D01*
X29329402Y-65600000D02*
X33600000Y-65600000D01*
X27635000Y-63525000D02*
X27635000Y-63905598D01*
X27635000Y-63905598D02*
X29329402Y-65600000D01*
X28905000Y-63905598D02*
X29871702Y-64872300D01*
X29871702Y-64872300D02*
X32845090Y-64872300D01*
X28905000Y-63525000D02*
X28905000Y-63905598D01*
X33000000Y-62000000D02*
X30900000Y-62000000D01*
X38000000Y-68700000D02*
X37200000Y-68700000D01*
X30200000Y-62700000D02*
X30200000Y-63500000D01*
X30200000Y-63500000D02*
X30175000Y-63525000D01*
X30900000Y-62000000D02*
X30200000Y-62700000D01*
X37200000Y-68700000D02*
X36800000Y-68300000D01*
X36800000Y-68300000D02*
X36800000Y-65800000D01*
X36800000Y-65800000D02*
X33000000Y-62000000D01*
G04 #@! TA.AperFunction,Conductor*
G36*
X43042121Y-39320002D02*
G01*
X43088614Y-39373658D01*
X43100000Y-39426000D01*
X43100000Y-42374000D01*
X43079998Y-42442121D01*
X43026342Y-42488614D01*
X42974000Y-42500000D01*
X41426000Y-42500000D01*
X41357879Y-42479998D01*
X41311386Y-42426342D01*
X41300000Y-42374000D01*
X41300000Y-39426000D01*
X41320002Y-39357879D01*
X41373658Y-39311386D01*
X41426000Y-39300000D01*
X42974000Y-39300000D01*
X43042121Y-39320002D01*
G37*
G04 #@! TD.AperFunction*
G04 #@! TA.AperFunction,Conductor*
G36*
X32753527Y-62653502D02*
G01*
X32774501Y-62670405D01*
X36129595Y-66025499D01*
X36163621Y-66087811D01*
X36166500Y-66114594D01*
X36166500Y-68221233D01*
X36165973Y-68232416D01*
X36164298Y-68239909D01*
X36164547Y-68247835D01*
X36164547Y-68247836D01*
X36166438Y-68307986D01*
X36166500Y-68311945D01*
X36166500Y-68339856D01*
X36166997Y-68343790D01*
X36166997Y-68343791D01*
X36167005Y-68343856D01*
X36167938Y-68355693D01*
X36169327Y-68399889D01*
X36173079Y-68412803D01*
X36174978Y-68419339D01*
X36178987Y-68438700D01*
X36181526Y-68458797D01*
X36184445Y-68466168D01*
X36184445Y-68466170D01*
X36197804Y-68499912D01*
X36201649Y-68511142D01*
X36213982Y-68553593D01*
X36218015Y-68560412D01*
X36218017Y-68560417D01*
X36224293Y-68571028D01*
X36232988Y-68588776D01*
X36240448Y-68607617D01*
X36245110Y-68614033D01*
X36245110Y-68614034D01*
X36266436Y-68643387D01*
X36272952Y-68653307D01*
X36281231Y-68667305D01*
X36295458Y-68691362D01*
X36309779Y-68705683D01*
X36322619Y-68720716D01*
X36334528Y-68737107D01*
X36340634Y-68742158D01*
X36368605Y-68765298D01*
X36377384Y-68773288D01*
X36696343Y-69092247D01*
X36703887Y-69100537D01*
X36708000Y-69107018D01*
X36713777Y-69112443D01*
X36757667Y-69153658D01*
X36760509Y-69156413D01*
X36780230Y-69176134D01*
X36783425Y-69178612D01*
X36792447Y-69186318D01*
X36824679Y-69216586D01*
X36841541Y-69225856D01*
X36891598Y-69276199D01*
X36902386Y-69305315D01*
X36902474Y-69306166D01*
X36904656Y-69312705D01*
X36904656Y-69312707D01*
X36948750Y-69444872D01*
X36958450Y-69473946D01*
X37017265Y-69568989D01*
X37036102Y-69637438D01*
X37019239Y-69698290D01*
X36977862Y-69769957D01*
X36918847Y-69951585D01*
X36918157Y-69958146D01*
X36918157Y-69958148D01*
X36902764Y-70104603D01*
X36898885Y-70141513D01*
X36899575Y-70148078D01*
X36917764Y-70321134D01*
X36918847Y-70331441D01*
X36977862Y-70513069D01*
X37073349Y-70678457D01*
X37077767Y-70683364D01*
X37077768Y-70683365D01*
X37182787Y-70800000D01*
X37201136Y-70820379D01*
X37314562Y-70902788D01*
X37357915Y-70959009D01*
X37366500Y-71004723D01*
X37366500Y-71775101D01*
X37346498Y-71843222D01*
X37306803Y-71882245D01*
X37275652Y-71901522D01*
X37150695Y-72026697D01*
X37146855Y-72032927D01*
X37146854Y-72032928D01*
X37070938Y-72156087D01*
X37057885Y-72177262D01*
X37002203Y-72345139D01*
X37001503Y-72351975D01*
X37001502Y-72351978D01*
X36997091Y-72395031D01*
X36991500Y-72449600D01*
X36991500Y-77550400D01*
X36991837Y-77553646D01*
X36991837Y-77553650D01*
X37002474Y-77656166D01*
X37000697Y-77656350D01*
X36996178Y-77718212D01*
X36953545Y-77774983D01*
X36886987Y-77799693D01*
X36878190Y-77800000D01*
X35121791Y-77800000D01*
X35053670Y-77779998D01*
X35007177Y-77726342D01*
X34997171Y-77656749D01*
X34997797Y-77654861D01*
X35008500Y-77550400D01*
X35008500Y-72449600D01*
X35008163Y-72446350D01*
X34998238Y-72350692D01*
X34998237Y-72350688D01*
X34997526Y-72343834D01*
X34941550Y-72176054D01*
X34848478Y-72025652D01*
X34723303Y-71900695D01*
X34707609Y-71891021D01*
X34646095Y-71853103D01*
X34598602Y-71800330D01*
X34586211Y-71745843D01*
X34586211Y-68431479D01*
X34586738Y-68420296D01*
X34588413Y-68412803D01*
X34586273Y-68344712D01*
X34586211Y-68340755D01*
X34586211Y-68312855D01*
X34585707Y-68308864D01*
X34584774Y-68297022D01*
X34583634Y-68260747D01*
X34583385Y-68252822D01*
X34581172Y-68245204D01*
X34577732Y-68233363D01*
X34573723Y-68214004D01*
X34573557Y-68212694D01*
X34571185Y-68193914D01*
X34568269Y-68186548D01*
X34568267Y-68186542D01*
X34554911Y-68152809D01*
X34551066Y-68141579D01*
X34540941Y-68106728D01*
X34540941Y-68106727D01*
X34538730Y-68099118D01*
X34528416Y-68081677D01*
X34519719Y-68063924D01*
X34515183Y-68052469D01*
X34512263Y-68045094D01*
X34486274Y-68009323D01*
X34479758Y-67999403D01*
X34461289Y-67968174D01*
X34457253Y-67961349D01*
X34442932Y-67947028D01*
X34430091Y-67931994D01*
X34422842Y-67922017D01*
X34418183Y-67915604D01*
X34412079Y-67910554D01*
X34412074Y-67910549D01*
X34384113Y-67887418D01*
X34375332Y-67879428D01*
X33962106Y-67466201D01*
X33928081Y-67403889D01*
X33933146Y-67333073D01*
X33975693Y-67276238D01*
X34042213Y-67251427D01*
X34102452Y-67262000D01*
X34117712Y-67268794D01*
X34211113Y-67288647D01*
X34298056Y-67307128D01*
X34298061Y-67307128D01*
X34304513Y-67308500D01*
X34495487Y-67308500D01*
X34501939Y-67307128D01*
X34501944Y-67307128D01*
X34588887Y-67288647D01*
X34682288Y-67268794D01*
X34697548Y-67262000D01*
X34850722Y-67193803D01*
X34850724Y-67193802D01*
X34856752Y-67191118D01*
X35011253Y-67078866D01*
X35052101Y-67033500D01*
X35134621Y-66941852D01*
X35134622Y-66941851D01*
X35139040Y-66936944D01*
X35234527Y-66771556D01*
X35293542Y-66589928D01*
X35313504Y-66400000D01*
X35298870Y-66260764D01*
X35294232Y-66216635D01*
X35294232Y-66216633D01*
X35293542Y-66210072D01*
X35234527Y-66028444D01*
X35139040Y-65863056D01*
X35042837Y-65756211D01*
X35015675Y-65726045D01*
X35015674Y-65726044D01*
X35011253Y-65721134D01*
X34856752Y-65608882D01*
X34850724Y-65606198D01*
X34850722Y-65606197D01*
X34688319Y-65533891D01*
X34688318Y-65533891D01*
X34682288Y-65531206D01*
X34675833Y-65529834D01*
X34675830Y-65529833D01*
X34614729Y-65516846D01*
X34590875Y-65511776D01*
X34528402Y-65478048D01*
X34494080Y-65415193D01*
X34493542Y-65410072D01*
X34478213Y-65362893D01*
X34436569Y-65234729D01*
X34434527Y-65228444D01*
X34426003Y-65213679D01*
X34342341Y-65068774D01*
X34339040Y-65063056D01*
X34307928Y-65028502D01*
X34215675Y-64926045D01*
X34215674Y-64926044D01*
X34211253Y-64921134D01*
X34056752Y-64808882D01*
X34050724Y-64806198D01*
X34050722Y-64806197D01*
X33888319Y-64733891D01*
X33888318Y-64733891D01*
X33882288Y-64731206D01*
X33875836Y-64729835D01*
X33875831Y-64729833D01*
X33816175Y-64717153D01*
X33753701Y-64683424D01*
X33722539Y-64632843D01*
X33681658Y-64507026D01*
X33679617Y-64500744D01*
X33584130Y-64335356D01*
X33456343Y-64193434D01*
X33301842Y-64081182D01*
X33295814Y-64078498D01*
X33295812Y-64078497D01*
X33133409Y-64006191D01*
X33133408Y-64006191D01*
X33127378Y-64003506D01*
X33021694Y-63981042D01*
X32947034Y-63965172D01*
X32947029Y-63965172D01*
X32940577Y-63963800D01*
X32749603Y-63963800D01*
X32743151Y-63965172D01*
X32743146Y-63965172D01*
X32668486Y-63981042D01*
X32562802Y-64003506D01*
X32556772Y-64006191D01*
X32556771Y-64006191D01*
X32394368Y-64078497D01*
X32394366Y-64078498D01*
X32388338Y-64081182D01*
X32233837Y-64193434D01*
X32229422Y-64198337D01*
X32224510Y-64202760D01*
X32223385Y-64201511D01*
X32170076Y-64234351D01*
X32136890Y-64238800D01*
X31109500Y-64238800D01*
X31041379Y-64218798D01*
X30994886Y-64165142D01*
X30983500Y-64112800D01*
X30983500Y-62864594D01*
X31003502Y-62796473D01*
X31020405Y-62775499D01*
X31125499Y-62670405D01*
X31187811Y-62636379D01*
X31214594Y-62633500D01*
X32685406Y-62633500D01*
X32753527Y-62653502D01*
G37*
G04 #@! TD.AperFunction*
G04 #@! TA.AperFunction,Conductor*
G36*
X41317012Y-66104509D02*
G01*
X41338340Y-66128366D01*
X41403181Y-66222709D01*
X41422274Y-66250490D01*
X41425161Y-66253663D01*
X41425162Y-66253664D01*
X41603692Y-66449867D01*
X41606582Y-66453043D01*
X41816675Y-66628707D01*
X41820316Y-66630991D01*
X42045024Y-66771951D01*
X42045028Y-66771953D01*
X42048664Y-66774234D01*
X42116544Y-66804883D01*
X42294345Y-66885164D01*
X42294349Y-66885166D01*
X42298257Y-66886930D01*
X42302377Y-66888150D01*
X42302376Y-66888150D01*
X42556723Y-66963491D01*
X42556727Y-66963492D01*
X42560836Y-66964709D01*
X42565070Y-66965357D01*
X42565075Y-66965358D01*
X42827298Y-67005483D01*
X42827300Y-67005483D01*
X42831540Y-67006132D01*
X42970912Y-67008322D01*
X43101071Y-67010367D01*
X43101077Y-67010367D01*
X43105362Y-67010434D01*
X43377235Y-66977534D01*
X43642127Y-66908041D01*
X43646087Y-66906401D01*
X43646092Y-66906399D01*
X43768632Y-66855641D01*
X43895136Y-66803241D01*
X44013359Y-66734157D01*
X44127879Y-66667237D01*
X44127880Y-66667236D01*
X44131582Y-66665073D01*
X44162755Y-66640630D01*
X44228702Y-66614339D01*
X44298396Y-66627874D01*
X44349709Y-66676941D01*
X44366500Y-66739785D01*
X44366500Y-71685406D01*
X44346498Y-71753527D01*
X44329595Y-71774501D01*
X43223595Y-72880500D01*
X43161283Y-72914526D01*
X43090467Y-72909461D01*
X43033632Y-72866914D01*
X43008821Y-72800394D01*
X43008500Y-72791405D01*
X43008500Y-72449600D01*
X43008163Y-72446350D01*
X42998238Y-72350692D01*
X42998237Y-72350688D01*
X42997526Y-72343834D01*
X42941550Y-72176054D01*
X42848478Y-72025652D01*
X42723303Y-71900695D01*
X42707609Y-71891021D01*
X42578968Y-71811725D01*
X42578966Y-71811724D01*
X42572738Y-71807885D01*
X42461946Y-71771137D01*
X42411389Y-71754368D01*
X42411387Y-71754368D01*
X42404861Y-71752203D01*
X42398025Y-71751503D01*
X42398022Y-71751502D01*
X42354969Y-71747091D01*
X42300400Y-71741500D01*
X41699600Y-71741500D01*
X41696354Y-71741837D01*
X41696350Y-71741837D01*
X41600692Y-71751762D01*
X41600688Y-71751763D01*
X41593834Y-71752474D01*
X41587298Y-71754655D01*
X41587296Y-71754655D01*
X41461183Y-71796730D01*
X41426054Y-71808450D01*
X41275652Y-71901522D01*
X41150695Y-72026697D01*
X41146855Y-72032927D01*
X41146854Y-72032928D01*
X41070938Y-72156087D01*
X41057885Y-72177262D01*
X41002203Y-72345139D01*
X41001503Y-72351975D01*
X41001502Y-72351978D01*
X40997091Y-72395031D01*
X40991500Y-72449600D01*
X40991500Y-77550400D01*
X40991837Y-77553646D01*
X40991837Y-77553650D01*
X41002474Y-77656166D01*
X41000697Y-77656350D01*
X40996178Y-77718212D01*
X40953545Y-77774983D01*
X40886987Y-77799693D01*
X40878190Y-77800000D01*
X39121791Y-77800000D01*
X39053670Y-77779998D01*
X39007177Y-77726342D01*
X38997171Y-77656749D01*
X38997797Y-77654861D01*
X39008500Y-77550400D01*
X39008500Y-72449600D01*
X39008163Y-72446350D01*
X38998238Y-72350692D01*
X38998237Y-72350688D01*
X38997526Y-72343834D01*
X38941550Y-72176054D01*
X38848478Y-72025652D01*
X38723303Y-71900695D01*
X38693382Y-71882251D01*
X38645890Y-71829478D01*
X38633500Y-71774992D01*
X38633500Y-70568286D01*
X38644259Y-70517671D01*
X38646916Y-70513069D01*
X38705931Y-70331441D01*
X38707015Y-70321134D01*
X38725203Y-70148078D01*
X38725893Y-70141513D01*
X38722014Y-70104603D01*
X38706621Y-69958148D01*
X38706621Y-69958146D01*
X38705931Y-69951585D01*
X38701366Y-69937535D01*
X38699338Y-69866570D01*
X38736000Y-69805772D01*
X38754886Y-69791463D01*
X38824348Y-69748478D01*
X38910784Y-69661891D01*
X38973066Y-69627812D01*
X39043886Y-69632815D01*
X39088976Y-69661736D01*
X39176697Y-69749305D01*
X39182927Y-69753145D01*
X39182928Y-69753146D01*
X39320090Y-69837694D01*
X39327262Y-69842115D01*
X39400992Y-69866570D01*
X39488611Y-69895632D01*
X39488613Y-69895632D01*
X39495139Y-69897797D01*
X39501975Y-69898497D01*
X39501978Y-69898498D01*
X39545031Y-69902909D01*
X39599600Y-69908500D01*
X40400400Y-69908500D01*
X40403646Y-69908163D01*
X40403650Y-69908163D01*
X40499308Y-69898238D01*
X40499312Y-69898237D01*
X40506166Y-69897526D01*
X40512702Y-69895345D01*
X40512704Y-69895345D01*
X40644806Y-69851272D01*
X40673946Y-69841550D01*
X40824348Y-69748478D01*
X40949305Y-69623303D01*
X40953146Y-69617072D01*
X41038275Y-69478968D01*
X41038276Y-69478966D01*
X41042115Y-69472738D01*
X41097797Y-69304861D01*
X41108500Y-69200400D01*
X41108500Y-68199600D01*
X41103645Y-68152809D01*
X41098238Y-68100692D01*
X41098237Y-68100688D01*
X41097526Y-68093834D01*
X41041550Y-67926054D01*
X40948478Y-67775652D01*
X40948362Y-67775536D01*
X40922827Y-67712457D01*
X40935996Y-67642692D01*
X40946864Y-67625749D01*
X40949305Y-67623303D01*
X41022618Y-67504368D01*
X41038275Y-67478968D01*
X41038276Y-67478966D01*
X41042115Y-67472738D01*
X41073016Y-67379573D01*
X41095632Y-67311389D01*
X41095632Y-67311387D01*
X41097797Y-67304861D01*
X41108500Y-67200400D01*
X41108500Y-66199733D01*
X41128502Y-66131612D01*
X41182158Y-66085119D01*
X41252432Y-66075015D01*
X41317012Y-66104509D01*
G37*
G04 #@! TD.AperFunction*
G04 #@! TA.AperFunction,Conductor*
G36*
X35242121Y-51608991D02*
G01*
X35288614Y-51662647D01*
X35300000Y-51714989D01*
X35300000Y-58800000D01*
X35870312Y-58800000D01*
X35938433Y-58820002D01*
X35984926Y-58873658D01*
X35995030Y-58943932D01*
X35965536Y-59008512D01*
X35959407Y-59015095D01*
X35918802Y-59055700D01*
X35787477Y-59243251D01*
X35785154Y-59248233D01*
X35785151Y-59248238D01*
X35769195Y-59282457D01*
X35722278Y-59335742D01*
X35654001Y-59355203D01*
X35586041Y-59334661D01*
X35540805Y-59282457D01*
X35524849Y-59248238D01*
X35524846Y-59248233D01*
X35522523Y-59243251D01*
X35391198Y-59055700D01*
X35229300Y-58893802D01*
X35224792Y-58890645D01*
X35224789Y-58890643D01*
X35123903Y-58820002D01*
X35041749Y-58762477D01*
X35036767Y-58760154D01*
X35036762Y-58760151D01*
X34839225Y-58668039D01*
X34839224Y-58668039D01*
X34834243Y-58665716D01*
X34828935Y-58664294D01*
X34828933Y-58664293D01*
X34618402Y-58607881D01*
X34618400Y-58607881D01*
X34613087Y-58606457D01*
X34385000Y-58586502D01*
X34156913Y-58606457D01*
X34151600Y-58607881D01*
X34151598Y-58607881D01*
X33941067Y-58664293D01*
X33941065Y-58664294D01*
X33935757Y-58665716D01*
X33930776Y-58668039D01*
X33930775Y-58668039D01*
X33733238Y-58760151D01*
X33733233Y-58760154D01*
X33728251Y-58762477D01*
X33646097Y-58820002D01*
X33545211Y-58890643D01*
X33545208Y-58890645D01*
X33540700Y-58893802D01*
X33378802Y-59055700D01*
X33247477Y-59243251D01*
X33245154Y-59248233D01*
X33245151Y-59248238D01*
X33229195Y-59282457D01*
X33182278Y-59335742D01*
X33114001Y-59355203D01*
X33046041Y-59334661D01*
X33000805Y-59282457D01*
X32984849Y-59248238D01*
X32984846Y-59248233D01*
X32982523Y-59243251D01*
X32851198Y-59055700D01*
X32689300Y-58893802D01*
X32684792Y-58890645D01*
X32684789Y-58890643D01*
X32583903Y-58820002D01*
X32501749Y-58762477D01*
X32496767Y-58760154D01*
X32496762Y-58760151D01*
X32299225Y-58668039D01*
X32299224Y-58668039D01*
X32294243Y-58665716D01*
X32288935Y-58664294D01*
X32288933Y-58664293D01*
X32078402Y-58607881D01*
X32078400Y-58607881D01*
X32073087Y-58606457D01*
X31845000Y-58586502D01*
X31616913Y-58606457D01*
X31611600Y-58607881D01*
X31611598Y-58607881D01*
X31401067Y-58664293D01*
X31401065Y-58664294D01*
X31395757Y-58665716D01*
X31390776Y-58668039D01*
X31390775Y-58668039D01*
X31193238Y-58760151D01*
X31193233Y-58760154D01*
X31188251Y-58762477D01*
X31106097Y-58820002D01*
X31005211Y-58890643D01*
X31005208Y-58890645D01*
X31000700Y-58893802D01*
X30838802Y-59055700D01*
X30707477Y-59243251D01*
X30705154Y-59248233D01*
X30705151Y-59248238D01*
X30689195Y-59282457D01*
X30642278Y-59335742D01*
X30574001Y-59355203D01*
X30506041Y-59334661D01*
X30460805Y-59282457D01*
X30444849Y-59248238D01*
X30444846Y-59248233D01*
X30442523Y-59243251D01*
X30311198Y-59055700D01*
X30149300Y-58893802D01*
X30144792Y-58890645D01*
X30144789Y-58890643D01*
X30043903Y-58820002D01*
X29961749Y-58762477D01*
X29956767Y-58760154D01*
X29956762Y-58760151D01*
X29759225Y-58668039D01*
X29759224Y-58668039D01*
X29754243Y-58665716D01*
X29748935Y-58664294D01*
X29748933Y-58664293D01*
X29538402Y-58607881D01*
X29538400Y-58607881D01*
X29533087Y-58606457D01*
X29305000Y-58586502D01*
X29076913Y-58606457D01*
X29071600Y-58607881D01*
X29071598Y-58607881D01*
X28861067Y-58664293D01*
X28861065Y-58664294D01*
X28855757Y-58665716D01*
X28850776Y-58668039D01*
X28850775Y-58668039D01*
X28653238Y-58760151D01*
X28653233Y-58760154D01*
X28648251Y-58762477D01*
X28566097Y-58820002D01*
X28465211Y-58890643D01*
X28465208Y-58890645D01*
X28460700Y-58893802D01*
X28298802Y-59055700D01*
X28167477Y-59243251D01*
X28165154Y-59248233D01*
X28165151Y-59248238D01*
X28149195Y-59282457D01*
X28102278Y-59335742D01*
X28034001Y-59355203D01*
X27966041Y-59334661D01*
X27920805Y-59282457D01*
X27904849Y-59248238D01*
X27904846Y-59248233D01*
X27902523Y-59243251D01*
X27771198Y-59055700D01*
X27609300Y-58893802D01*
X27604792Y-58890645D01*
X27604789Y-58890643D01*
X27503903Y-58820002D01*
X27421749Y-58762477D01*
X27416767Y-58760154D01*
X27416762Y-58760151D01*
X27219225Y-58668039D01*
X27219224Y-58668039D01*
X27214243Y-58665716D01*
X27208935Y-58664294D01*
X27208933Y-58664293D01*
X26998402Y-58607881D01*
X26998400Y-58607881D01*
X26993087Y-58606457D01*
X26765000Y-58586502D01*
X26536913Y-58606457D01*
X26531600Y-58607881D01*
X26531598Y-58607881D01*
X26321067Y-58664293D01*
X26321065Y-58664294D01*
X26315757Y-58665716D01*
X26310776Y-58668039D01*
X26310775Y-58668039D01*
X26113238Y-58760151D01*
X26113233Y-58760154D01*
X26108251Y-58762477D01*
X26026097Y-58820002D01*
X25925211Y-58890643D01*
X25925208Y-58890645D01*
X25920700Y-58893802D01*
X25758802Y-59055700D01*
X25755643Y-59060211D01*
X25752108Y-59064424D01*
X25750974Y-59063473D01*
X25700929Y-59103471D01*
X25630310Y-59110776D01*
X25566951Y-59078742D01*
X25530970Y-59017538D01*
X25527918Y-59000483D01*
X25526745Y-58989684D01*
X25475615Y-58853295D01*
X25388261Y-58736739D01*
X25271705Y-58649385D01*
X25135316Y-58598255D01*
X25073134Y-58591500D01*
X23376866Y-58591500D01*
X23314684Y-58598255D01*
X23178295Y-58649385D01*
X23061739Y-58736739D01*
X22974385Y-58853295D01*
X22923255Y-58989684D01*
X22916500Y-59051866D01*
X22916500Y-60465010D01*
X22896498Y-60533131D01*
X22842842Y-60579624D01*
X22790500Y-60591010D01*
X22654257Y-60591010D01*
X22643074Y-60590483D01*
X22635581Y-60588808D01*
X22627655Y-60589057D01*
X22627654Y-60589057D01*
X22567504Y-60590948D01*
X22563545Y-60591010D01*
X22535634Y-60591010D01*
X22531700Y-60591507D01*
X22531699Y-60591507D01*
X22531634Y-60591515D01*
X22519797Y-60592448D01*
X22487980Y-60593448D01*
X22483519Y-60593588D01*
X22475600Y-60593837D01*
X22457944Y-60598966D01*
X22456148Y-60599488D01*
X22436796Y-60603496D01*
X22429725Y-60604390D01*
X22416693Y-60606036D01*
X22409324Y-60608953D01*
X22409322Y-60608954D01*
X22375587Y-60622310D01*
X22364359Y-60626155D01*
X22321897Y-60638492D01*
X22315075Y-60642526D01*
X22315069Y-60642529D01*
X22304458Y-60648804D01*
X22286708Y-60657500D01*
X22275246Y-60662038D01*
X22275241Y-60662041D01*
X22267873Y-60664958D01*
X22261458Y-60669619D01*
X22232115Y-60690937D01*
X22222197Y-60697453D01*
X22203509Y-60708505D01*
X22184127Y-60719968D01*
X22169803Y-60734292D01*
X22154771Y-60747131D01*
X22138383Y-60759038D01*
X22110202Y-60793103D01*
X22102212Y-60801883D01*
X21207747Y-61696348D01*
X21199461Y-61703888D01*
X21192982Y-61708000D01*
X21187557Y-61713777D01*
X21146357Y-61757651D01*
X21143602Y-61760493D01*
X21123865Y-61780230D01*
X21121385Y-61783427D01*
X21113682Y-61792447D01*
X21083414Y-61824679D01*
X21079595Y-61831625D01*
X21079593Y-61831628D01*
X21073652Y-61842434D01*
X21062801Y-61858953D01*
X21050386Y-61874959D01*
X21047241Y-61882228D01*
X21047238Y-61882232D01*
X21032826Y-61915537D01*
X21027609Y-61926187D01*
X21006305Y-61964940D01*
X21004334Y-61972615D01*
X21004334Y-61972616D01*
X21001267Y-61984562D01*
X20994863Y-62003266D01*
X20986819Y-62021855D01*
X20985580Y-62029678D01*
X20985577Y-62029688D01*
X20979901Y-62065524D01*
X20977495Y-62077144D01*
X20970076Y-62106042D01*
X20966500Y-62119970D01*
X20966500Y-62140224D01*
X20964949Y-62159934D01*
X20961780Y-62179943D01*
X20962526Y-62187835D01*
X20965941Y-62223961D01*
X20966500Y-62235819D01*
X20966500Y-65790635D01*
X20965973Y-65801818D01*
X20964298Y-65809311D01*
X20964547Y-65817237D01*
X20964547Y-65817238D01*
X20966438Y-65877388D01*
X20966500Y-65881347D01*
X20966500Y-65909258D01*
X20966997Y-65913192D01*
X20966997Y-65913193D01*
X20967005Y-65913258D01*
X20967938Y-65925095D01*
X20969327Y-65969291D01*
X20972882Y-65981526D01*
X20974978Y-65988741D01*
X20978987Y-66008102D01*
X20981526Y-66028199D01*
X20984445Y-66035570D01*
X20984445Y-66035572D01*
X20997804Y-66069314D01*
X21001649Y-66080544D01*
X21013982Y-66122995D01*
X21018015Y-66129814D01*
X21018017Y-66129819D01*
X21024293Y-66140430D01*
X21032988Y-66158178D01*
X21040448Y-66177019D01*
X21045110Y-66183435D01*
X21045110Y-66183436D01*
X21066436Y-66212789D01*
X21072952Y-66222709D01*
X21089382Y-66250490D01*
X21095458Y-66260764D01*
X21109779Y-66275085D01*
X21122619Y-66290118D01*
X21134528Y-66306509D01*
X21140634Y-66311560D01*
X21168605Y-66334700D01*
X21177384Y-66342690D01*
X21890122Y-67055428D01*
X21924148Y-67117740D01*
X21919083Y-67188555D01*
X21890122Y-67233618D01*
X21880547Y-67243193D01*
X21876511Y-67250017D01*
X21876509Y-67250020D01*
X21843305Y-67306166D01*
X21795855Y-67386399D01*
X21749438Y-67546169D01*
X21748934Y-67552574D01*
X21748933Y-67552579D01*
X21746693Y-67581042D01*
X21746500Y-67583498D01*
X21746500Y-69366502D01*
X21749438Y-69403831D01*
X21751233Y-69410008D01*
X21789311Y-69541075D01*
X21795855Y-69563601D01*
X21799892Y-69570427D01*
X21876509Y-69699980D01*
X21876511Y-69699983D01*
X21880547Y-69706807D01*
X21886155Y-69712415D01*
X21891011Y-69718675D01*
X21889504Y-69719844D01*
X21918621Y-69773167D01*
X21921500Y-69799950D01*
X21921500Y-70147452D01*
X21901498Y-70215573D01*
X21889137Y-70231762D01*
X21860960Y-70263056D01*
X21857658Y-70268775D01*
X21857656Y-70268778D01*
X21825267Y-70324878D01*
X21765473Y-70428444D01*
X21706458Y-70610072D01*
X21705768Y-70616633D01*
X21705768Y-70616635D01*
X21699066Y-70680405D01*
X21686496Y-70800000D01*
X21706458Y-70989928D01*
X21765473Y-71171556D01*
X21860960Y-71336944D01*
X21865378Y-71341851D01*
X21865379Y-71341852D01*
X21969815Y-71457840D01*
X21988747Y-71478866D01*
X22029723Y-71508637D01*
X22136160Y-71585968D01*
X22143248Y-71591118D01*
X22149276Y-71593802D01*
X22149278Y-71593803D01*
X22297441Y-71659769D01*
X22317712Y-71668794D01*
X22395865Y-71685406D01*
X22498056Y-71707128D01*
X22498061Y-71707128D01*
X22504513Y-71708500D01*
X22695487Y-71708500D01*
X22701939Y-71707128D01*
X22701944Y-71707128D01*
X22804135Y-71685406D01*
X22882288Y-71668794D01*
X22902559Y-71659769D01*
X23050722Y-71593803D01*
X23050724Y-71593802D01*
X23056752Y-71591118D01*
X23063841Y-71585968D01*
X23117906Y-71546687D01*
X23184774Y-71522828D01*
X23253925Y-71538909D01*
X23285600Y-71564310D01*
X23334137Y-71618215D01*
X23364853Y-71682221D01*
X23366500Y-71702524D01*
X23366500Y-71775101D01*
X23346498Y-71843222D01*
X23306803Y-71882245D01*
X23275652Y-71901522D01*
X23150695Y-72026697D01*
X23146855Y-72032927D01*
X23146854Y-72032928D01*
X23070938Y-72156087D01*
X23057885Y-72177262D01*
X23002203Y-72345139D01*
X23001503Y-72351975D01*
X23001502Y-72351978D01*
X22997091Y-72395031D01*
X22991500Y-72449600D01*
X22991500Y-75475312D01*
X22971498Y-75543433D01*
X22917842Y-75589926D01*
X22847568Y-75600030D01*
X22782988Y-75570536D01*
X22758357Y-75541617D01*
X22748478Y-75525652D01*
X22623303Y-75400695D01*
X22617072Y-75396854D01*
X22478968Y-75311725D01*
X22478966Y-75311724D01*
X22472738Y-75307885D01*
X22312254Y-75254655D01*
X22311389Y-75254368D01*
X22311387Y-75254368D01*
X22304861Y-75252203D01*
X22298025Y-75251503D01*
X22298022Y-75251502D01*
X22253153Y-75246905D01*
X22200400Y-75241500D01*
X20999600Y-75241500D01*
X20996354Y-75241837D01*
X20996350Y-75241837D01*
X20900692Y-75251762D01*
X20900688Y-75251763D01*
X20893834Y-75252474D01*
X20887298Y-75254655D01*
X20887296Y-75254655D01*
X20755194Y-75298728D01*
X20726054Y-75308450D01*
X20575652Y-75401522D01*
X20450695Y-75526697D01*
X20446853Y-75532929D01*
X20446852Y-75532931D01*
X20441259Y-75542004D01*
X20388486Y-75589497D01*
X20318415Y-75600919D01*
X20253291Y-75572645D01*
X20213792Y-75513650D01*
X20208000Y-75475887D01*
X20208000Y-54126000D01*
X20228002Y-54057879D01*
X20281658Y-54011386D01*
X20334000Y-54000000D01*
X33500000Y-54000000D01*
X33500000Y-51714989D01*
X33520002Y-51646868D01*
X33573658Y-51600375D01*
X33626000Y-51588989D01*
X35174000Y-51588989D01*
X35242121Y-51608991D01*
G37*
G04 #@! TD.AperFunction*
G04 #@! TA.AperFunction,Conductor*
G36*
X38263959Y-60465339D02*
G01*
X38309195Y-60517543D01*
X38325151Y-60551762D01*
X38325154Y-60551767D01*
X38327477Y-60556749D01*
X38374916Y-60624499D01*
X38441765Y-60719968D01*
X38458802Y-60744300D01*
X38620700Y-60906198D01*
X38625208Y-60909355D01*
X38625211Y-60909357D01*
X38703389Y-60964098D01*
X38808251Y-61037523D01*
X38813233Y-61039846D01*
X38813238Y-61039849D01*
X38983825Y-61119394D01*
X39015757Y-61134284D01*
X39021065Y-61135706D01*
X39021067Y-61135707D01*
X39231598Y-61192119D01*
X39231600Y-61192119D01*
X39236913Y-61193543D01*
X39465000Y-61213498D01*
X39693087Y-61193543D01*
X39698400Y-61192119D01*
X39698402Y-61192119D01*
X39908933Y-61135707D01*
X39908935Y-61135706D01*
X39914243Y-61134284D01*
X39946175Y-61119394D01*
X40116762Y-61039849D01*
X40116767Y-61039846D01*
X40121749Y-61037523D01*
X40226611Y-60964098D01*
X40304789Y-60909357D01*
X40304792Y-60909355D01*
X40309300Y-60906198D01*
X40416053Y-60799445D01*
X40478365Y-60765419D01*
X40549180Y-60770484D01*
X40600000Y-60808527D01*
X40600000Y-61200000D01*
X41845210Y-61200000D01*
X41856192Y-61200479D01*
X42005000Y-61213498D01*
X42153808Y-61200479D01*
X42164790Y-61200000D01*
X42999905Y-61200000D01*
X43068026Y-61220002D01*
X43114519Y-61273658D01*
X43124623Y-61343932D01*
X43095129Y-61408512D01*
X43089004Y-61415092D01*
X42746444Y-61757651D01*
X42411999Y-62092096D01*
X42349687Y-62126121D01*
X42322904Y-62129000D01*
X39916967Y-62129000D01*
X39848846Y-62108998D01*
X39802353Y-62055342D01*
X39795970Y-62038152D01*
X39761358Y-61919014D01*
X39761356Y-61919009D01*
X39759145Y-61911399D01*
X39733892Y-61868699D01*
X39678491Y-61775020D01*
X39678489Y-61775017D01*
X39674453Y-61768193D01*
X39556807Y-61650547D01*
X39549983Y-61646511D01*
X39549980Y-61646509D01*
X39442411Y-61582893D01*
X39413601Y-61565855D01*
X39405990Y-61563644D01*
X39405988Y-61563643D01*
X39337005Y-61543602D01*
X39253831Y-61519438D01*
X39247426Y-61518934D01*
X39247421Y-61518933D01*
X39218958Y-61516693D01*
X39218950Y-61516693D01*
X39216502Y-61516500D01*
X38783498Y-61516500D01*
X38781050Y-61516693D01*
X38781042Y-61516693D01*
X38752579Y-61518933D01*
X38752574Y-61518934D01*
X38746169Y-61519438D01*
X38662995Y-61543602D01*
X38594012Y-61563643D01*
X38594010Y-61563644D01*
X38586399Y-61565855D01*
X38557589Y-61582893D01*
X38450020Y-61646509D01*
X38450017Y-61646511D01*
X38443193Y-61650547D01*
X38325547Y-61768193D01*
X38321511Y-61775017D01*
X38321509Y-61775020D01*
X38266108Y-61868699D01*
X38240855Y-61911399D01*
X38238644Y-61919010D01*
X38238643Y-61919012D01*
X38235624Y-61929405D01*
X38194438Y-62071169D01*
X38191500Y-62108498D01*
X38191500Y-63416502D01*
X38191693Y-63418950D01*
X38191693Y-63418958D01*
X38193417Y-63440855D01*
X38194438Y-63453831D01*
X38240855Y-63613601D01*
X38244892Y-63620427D01*
X38321509Y-63749980D01*
X38321511Y-63749983D01*
X38325547Y-63756807D01*
X38443193Y-63874453D01*
X38450017Y-63878489D01*
X38450020Y-63878491D01*
X38546683Y-63935657D01*
X38586399Y-63959145D01*
X38594010Y-63961356D01*
X38594012Y-63961357D01*
X38607144Y-63965172D01*
X38746169Y-64005562D01*
X38752574Y-64006066D01*
X38752579Y-64006067D01*
X38781042Y-64008307D01*
X38781050Y-64008307D01*
X38783498Y-64008500D01*
X39015500Y-64008500D01*
X39083621Y-64028502D01*
X39130114Y-64082158D01*
X39141500Y-64134500D01*
X39141500Y-65291502D01*
X39144438Y-65328831D01*
X39190855Y-65488601D01*
X39196088Y-65497449D01*
X39196543Y-65499241D01*
X39198038Y-65502697D01*
X39197481Y-65502938D01*
X39213548Y-65566262D01*
X39191033Y-65633594D01*
X39174892Y-65650764D01*
X39175652Y-65651522D01*
X39050695Y-65776697D01*
X39046855Y-65782927D01*
X39046854Y-65782928D01*
X38986188Y-65881347D01*
X38957885Y-65927262D01*
X38955581Y-65934209D01*
X38904634Y-66087811D01*
X38902203Y-66095139D01*
X38901503Y-66101975D01*
X38901502Y-66101978D01*
X38897541Y-66140637D01*
X38891500Y-66199600D01*
X38891500Y-67200400D01*
X38891837Y-67203646D01*
X38891837Y-67203650D01*
X38899369Y-67276238D01*
X38902474Y-67306166D01*
X38904655Y-67312702D01*
X38904655Y-67312704D01*
X38957815Y-67472043D01*
X38960399Y-67542992D01*
X38924216Y-67604076D01*
X38860751Y-67635901D01*
X38790156Y-67628362D01*
X38772175Y-67619179D01*
X38678968Y-67561725D01*
X38678966Y-67561724D01*
X38672738Y-67557885D01*
X38592995Y-67531436D01*
X38511389Y-67504368D01*
X38511387Y-67504368D01*
X38504861Y-67502203D01*
X38498025Y-67501503D01*
X38498022Y-67501502D01*
X38454969Y-67497091D01*
X38400400Y-67491500D01*
X37599600Y-67491500D01*
X37596359Y-67491836D01*
X37596345Y-67491837D01*
X37572502Y-67494311D01*
X37502681Y-67481445D01*
X37450899Y-67432874D01*
X37433500Y-67368984D01*
X37433500Y-65878768D01*
X37434027Y-65867585D01*
X37435702Y-65860092D01*
X37433562Y-65792001D01*
X37433500Y-65788044D01*
X37433500Y-65760144D01*
X37432996Y-65756153D01*
X37432063Y-65744311D01*
X37430923Y-65708036D01*
X37430674Y-65700111D01*
X37425021Y-65680652D01*
X37421012Y-65661293D01*
X37420326Y-65655866D01*
X37418474Y-65641203D01*
X37415558Y-65633837D01*
X37415556Y-65633831D01*
X37402200Y-65600098D01*
X37398355Y-65588868D01*
X37388230Y-65554017D01*
X37388230Y-65554016D01*
X37386019Y-65546407D01*
X37378617Y-65533891D01*
X37375705Y-65528966D01*
X37367008Y-65511213D01*
X37362472Y-65499758D01*
X37359552Y-65492383D01*
X37333563Y-65456612D01*
X37327047Y-65446692D01*
X37308578Y-65415463D01*
X37304542Y-65408638D01*
X37290221Y-65394317D01*
X37277380Y-65379283D01*
X37270131Y-65369306D01*
X37265472Y-65362893D01*
X37231395Y-65334702D01*
X37222616Y-65326712D01*
X35999753Y-64103848D01*
X35965727Y-64041536D01*
X35970792Y-63970720D01*
X36013339Y-63913885D01*
X36037596Y-63899647D01*
X36043775Y-63896896D01*
X36056752Y-63891118D01*
X36087410Y-63868844D01*
X36190406Y-63794012D01*
X36211253Y-63778866D01*
X36269989Y-63713633D01*
X36334621Y-63641852D01*
X36334622Y-63641851D01*
X36339040Y-63636944D01*
X36434527Y-63471556D01*
X36493542Y-63289928D01*
X36501323Y-63215901D01*
X36512814Y-63106565D01*
X36513504Y-63100000D01*
X36493542Y-62910072D01*
X36434527Y-62728444D01*
X36339040Y-62563056D01*
X36211253Y-62421134D01*
X36056752Y-62308882D01*
X36050724Y-62306198D01*
X36050722Y-62306197D01*
X35888319Y-62233891D01*
X35888318Y-62233891D01*
X35882288Y-62231206D01*
X35788887Y-62211353D01*
X35701944Y-62192872D01*
X35701939Y-62192872D01*
X35695487Y-62191500D01*
X35639595Y-62191500D01*
X35571474Y-62171498D01*
X35550500Y-62154595D01*
X35055405Y-61659500D01*
X35021379Y-61597188D01*
X35018500Y-61570405D01*
X35018500Y-61119394D01*
X35038502Y-61051273D01*
X35072229Y-61016181D01*
X35224789Y-60909357D01*
X35224792Y-60909355D01*
X35229300Y-60906198D01*
X35391198Y-60744300D01*
X35408236Y-60719968D01*
X35475084Y-60624499D01*
X35522523Y-60556749D01*
X35524846Y-60551767D01*
X35524849Y-60551762D01*
X35540805Y-60517543D01*
X35587722Y-60464258D01*
X35655999Y-60444797D01*
X35723959Y-60465339D01*
X35769195Y-60517543D01*
X35785151Y-60551762D01*
X35785154Y-60551767D01*
X35787477Y-60556749D01*
X35834916Y-60624499D01*
X35901765Y-60719968D01*
X35918802Y-60744300D01*
X36080700Y-60906198D01*
X36085208Y-60909355D01*
X36085211Y-60909357D01*
X36163389Y-60964098D01*
X36268251Y-61037523D01*
X36273233Y-61039846D01*
X36273238Y-61039849D01*
X36443825Y-61119394D01*
X36475757Y-61134284D01*
X36481065Y-61135706D01*
X36481067Y-61135707D01*
X36691598Y-61192119D01*
X36691600Y-61192119D01*
X36696913Y-61193543D01*
X36925000Y-61213498D01*
X37153087Y-61193543D01*
X37158400Y-61192119D01*
X37158402Y-61192119D01*
X37368933Y-61135707D01*
X37368935Y-61135706D01*
X37374243Y-61134284D01*
X37406175Y-61119394D01*
X37576762Y-61039849D01*
X37576767Y-61039846D01*
X37581749Y-61037523D01*
X37686611Y-60964098D01*
X37764789Y-60909357D01*
X37764792Y-60909355D01*
X37769300Y-60906198D01*
X37931198Y-60744300D01*
X37948236Y-60719968D01*
X38015084Y-60624499D01*
X38062523Y-60556749D01*
X38064846Y-60551767D01*
X38064849Y-60551762D01*
X38080805Y-60517543D01*
X38127722Y-60464258D01*
X38195999Y-60444797D01*
X38263959Y-60465339D01*
G37*
G04 #@! TD.AperFunction*
M02*
