G04 #@! TF.GenerationSoftware,KiCad,Pcbnew,(6.0.0)*
G04 #@! TF.CreationDate,2022-01-19T21:14:50+07:00*
G04 #@! TF.ProjectId,NixieClock,4e697869-6543-46c6-9f63-6b2e6b696361,rev?*
G04 #@! TF.SameCoordinates,Original*
G04 #@! TF.FileFunction,Copper,L1,Top*
G04 #@! TF.FilePolarity,Positive*
%FSLAX46Y46*%
G04 Gerber Fmt 4.6, Leading zero omitted, Abs format (unit mm)*
G04 Created by KiCad (PCBNEW (6.0.0)) date 2022-01-19 21:14:50*
%MOMM*%
%LPD*%
G01*
G04 APERTURE LIST*
G04 Aperture macros list*
%AMRoundRect*
0 Rectangle with rounded corners*
0 $1 Rounding radius*
0 $2 $3 $4 $5 $6 $7 $8 $9 X,Y pos of 4 corners*
0 Add a 4 corners polygon primitive as box body*
4,1,4,$2,$3,$4,$5,$6,$7,$8,$9,$2,$3,0*
0 Add four circle primitives for the rounded corners*
1,1,$1+$1,$2,$3*
1,1,$1+$1,$4,$5*
1,1,$1+$1,$6,$7*
1,1,$1+$1,$8,$9*
0 Add four rect primitives between the rounded corners*
20,1,$1+$1,$2,$3,$4,$5,0*
20,1,$1+$1,$4,$5,$6,$7,0*
20,1,$1+$1,$6,$7,$8,$9,0*
20,1,$1+$1,$8,$9,$2,$3,0*%
G04 Aperture macros list end*
G04 #@! TA.AperFunction,Profile*
%ADD10C,0.050000*%
G04 #@! TD*
G04 #@! TA.AperFunction,ComponentPad*
%ADD11C,1.500000*%
G04 #@! TD*
G04 #@! TA.AperFunction,ComponentPad*
%ADD12R,1.600000X1.600000*%
G04 #@! TD*
G04 #@! TA.AperFunction,ComponentPad*
%ADD13O,1.600000X1.600000*%
G04 #@! TD*
G04 #@! TA.AperFunction,SMDPad,CuDef*
%ADD14RoundRect,0.237500X-0.237500X0.250000X-0.237500X-0.250000X0.237500X-0.250000X0.237500X0.250000X0*%
G04 #@! TD*
G04 #@! TA.AperFunction,SMDPad,CuDef*
%ADD15R,0.600000X1.000000*%
G04 #@! TD*
G04 #@! TA.AperFunction,ComponentPad*
%ADD16C,1.400000*%
G04 #@! TD*
G04 #@! TA.AperFunction,ComponentPad*
%ADD17O,1.400000X1.400000*%
G04 #@! TD*
G04 #@! TA.AperFunction,ViaPad*
%ADD18C,3.000000*%
G04 #@! TD*
G04 #@! TA.AperFunction,ViaPad*
%ADD19C,0.800000*%
G04 #@! TD*
G04 #@! TA.AperFunction,Conductor*
%ADD20C,0.250000*%
G04 #@! TD*
G04 APERTURE END LIST*
D10*
X45700000Y-80300000D02*
X19700000Y-80300000D01*
X19700000Y-80300000D02*
X19700000Y-28300000D01*
X19700000Y-28300000D02*
X45700000Y-28300000D01*
X45700000Y-28300000D02*
X45700000Y-80300000D01*
D11*
X31025000Y-34786000D03*
X29286190Y-36524671D03*
X28649671Y-38899810D03*
X29286000Y-41275000D03*
X31024671Y-43013810D03*
X33399810Y-43650329D03*
X35775000Y-43014000D03*
X37513810Y-41275329D03*
X38150329Y-38900190D03*
X37514000Y-36525000D03*
X35775329Y-34786190D03*
D12*
X24225000Y-59900000D03*
D13*
X26765000Y-59900000D03*
X29305000Y-59900000D03*
X31845000Y-59900000D03*
X34385000Y-59900000D03*
X36925000Y-59900000D03*
X39465000Y-59900000D03*
X42005000Y-59900000D03*
X42005000Y-52280000D03*
X39465000Y-52280000D03*
X36925000Y-52280000D03*
X34385000Y-52280000D03*
X31845000Y-52280000D03*
X29305000Y-52280000D03*
X26765000Y-52280000D03*
X24225000Y-52280000D03*
D14*
X26200000Y-65087500D03*
X26200000Y-66912500D03*
X24600000Y-65075000D03*
X24600000Y-66900000D03*
X23000000Y-65075000D03*
X23000000Y-66900000D03*
D15*
X34150000Y-37900000D03*
X32850000Y-37900000D03*
X32850000Y-39900000D03*
X34150000Y-39900000D03*
D16*
X36990000Y-48700000D03*
D17*
X44610000Y-48700000D03*
D18*
X43000000Y-32000000D03*
X43000000Y-65000000D03*
X23000000Y-32000000D03*
D19*
X31900000Y-45000000D03*
X27900000Y-50000000D03*
X27899671Y-44699671D03*
X29100000Y-48600000D03*
X26800000Y-45200000D03*
X24400000Y-62000000D03*
X23185833Y-61952211D03*
X37812389Y-70141513D03*
X35600000Y-63100000D03*
X22600000Y-70800000D03*
X31400000Y-71000000D03*
X24000000Y-71000000D03*
X22200000Y-72900000D03*
X35000000Y-70200000D03*
X36900000Y-63100000D03*
X22200000Y-73900000D03*
X44000000Y-69000000D03*
X43000000Y-71000000D03*
X43000000Y-68000000D03*
X21200000Y-72900000D03*
X43000000Y-70000000D03*
X44000000Y-68000000D03*
X36900000Y-64000000D03*
X21200000Y-73900000D03*
X37800000Y-63100000D03*
X44000000Y-70000000D03*
X35000000Y-71300000D03*
X43000000Y-69000000D03*
X44000000Y-71000000D03*
X34400000Y-66400000D03*
X33600000Y-65600000D03*
X32845090Y-64872300D03*
D20*
X38788321Y-39538182D02*
X38150329Y-38900190D01*
X44600000Y-57700000D02*
X44600000Y-52000000D01*
X44600000Y-52000000D02*
X38788321Y-46188321D01*
X43800000Y-58500000D02*
X44600000Y-57700000D01*
X28165000Y-58500000D02*
X43800000Y-58500000D01*
X26765000Y-59900000D02*
X28165000Y-58500000D01*
X38788321Y-46188321D02*
X38788321Y-39538182D01*
X43900000Y-57481452D02*
X43900000Y-52301857D01*
X43530963Y-57850489D02*
X43900000Y-57481452D01*
X37513810Y-45915667D02*
X37513810Y-41275329D01*
X24225000Y-59900000D02*
X26274511Y-57850489D01*
X26274511Y-57850489D02*
X43530963Y-57850489D01*
X43900000Y-52301857D02*
X37513810Y-45915667D01*
X38798143Y-52280000D02*
X39465000Y-52280000D01*
X35775000Y-49256857D02*
X38798143Y-52280000D01*
X35775000Y-43014000D02*
X35775000Y-49256857D01*
X33399810Y-43650329D02*
X33399810Y-48754810D01*
X33399810Y-48754810D02*
X36925000Y-52280000D01*
X31024671Y-43013810D02*
X30024501Y-44013980D01*
X30024501Y-44013980D02*
X30024501Y-51560499D01*
X30024501Y-51560499D02*
X29305000Y-52280000D01*
X31900000Y-45000000D02*
X31845000Y-45055000D01*
X31845000Y-45055000D02*
X31845000Y-52280000D01*
X27899671Y-47992886D02*
X27899671Y-44699671D01*
X27900000Y-50000000D02*
X27899671Y-47992886D01*
X28225530Y-36524671D02*
X27300000Y-37450201D01*
X29100000Y-44100000D02*
X27300000Y-42300000D01*
X29100000Y-48600000D02*
X29100000Y-44100000D01*
X29286190Y-36524671D02*
X28225530Y-36524671D01*
X27300000Y-37450201D02*
X27300000Y-42300000D01*
X26765000Y-45235000D02*
X26800000Y-45200000D01*
X26765000Y-45335000D02*
X26765000Y-45235000D01*
X26765000Y-52280000D02*
X26765000Y-45335000D01*
X39465000Y-61035000D02*
X39465000Y-59900000D01*
X38500000Y-62000000D02*
X39465000Y-61035000D01*
X24400000Y-62000000D02*
X38500000Y-62000000D01*
X24098575Y-61272299D02*
X23418663Y-61952211D01*
X36925000Y-59900000D02*
X35552701Y-61272299D01*
X35552701Y-61272299D02*
X24098575Y-61272299D01*
X23418663Y-61952211D02*
X23185833Y-61952211D01*
X22458133Y-63158133D02*
X22900000Y-63600000D01*
X32800000Y-34200000D02*
X31800000Y-33200000D01*
X31800000Y-33200000D02*
X29700000Y-33200000D01*
X32222289Y-39272289D02*
X32222289Y-37072289D01*
X32850000Y-39900000D02*
X32222289Y-39272289D01*
X29700000Y-33200000D02*
X25600000Y-37300000D01*
X22458133Y-50141867D02*
X22458133Y-63158133D01*
X24712500Y-63600000D02*
X26200000Y-65087500D01*
X25600000Y-37300000D02*
X25600000Y-47000000D01*
X32800000Y-36494578D02*
X32800000Y-34200000D01*
X25600000Y-47000000D02*
X22458133Y-50141867D01*
X22900000Y-63600000D02*
X24712500Y-63600000D01*
X32222289Y-37072289D02*
X32800000Y-36494578D01*
X34252711Y-33552711D02*
X32400000Y-31700000D01*
X34777711Y-39272289D02*
X34777711Y-37072289D01*
X29094578Y-31700000D02*
X23997289Y-36797289D01*
X34150000Y-39900000D02*
X34777711Y-39272289D01*
X35400000Y-69100000D02*
X24300000Y-69100000D01*
X32400000Y-31700000D02*
X29094578Y-31700000D01*
X34777711Y-37072289D02*
X34252711Y-36547289D01*
X37812389Y-70141513D02*
X37670876Y-70000000D01*
X21100000Y-49400000D02*
X21100000Y-66286841D01*
X37670876Y-70000000D02*
X36300000Y-70000000D01*
X35900000Y-69600000D02*
X36300000Y-70000000D01*
X21100000Y-66286841D02*
X23913159Y-69100000D01*
X24000000Y-36800000D02*
X24000000Y-46500000D01*
X23913159Y-69100000D02*
X24300000Y-69100000D01*
X34252711Y-36547289D02*
X34252711Y-33552711D01*
X24000000Y-46500000D02*
X21100000Y-49400000D01*
X36300000Y-70000000D02*
X35400000Y-69100000D01*
X23997289Y-36797289D02*
X24000000Y-36800000D01*
X24300000Y-69100000D02*
X23400000Y-70000000D01*
X35600000Y-63100000D02*
X35900000Y-63400000D01*
X35900000Y-63400000D02*
X35900000Y-69600000D01*
X23400000Y-70000000D02*
X22600000Y-70800000D01*
X25000000Y-46900000D02*
X25000000Y-37200000D01*
X32850000Y-37250000D02*
X32850000Y-37900000D01*
X32000000Y-32700000D02*
X33300000Y-34000000D01*
X24259780Y-64259780D02*
X22359780Y-64259780D01*
X25000000Y-37200000D02*
X29500000Y-32700000D01*
X22359780Y-64259780D02*
X22005422Y-63905422D01*
X24600000Y-64600000D02*
X24259780Y-64259780D01*
X24600000Y-65075000D02*
X24600000Y-64600000D01*
X33300000Y-34000000D02*
X33300000Y-36800000D01*
X29500000Y-32700000D02*
X32000000Y-32700000D01*
X22005422Y-49894578D02*
X25000000Y-46900000D01*
X22005422Y-63905422D02*
X22005422Y-49894578D01*
X33300000Y-36800000D02*
X32850000Y-37250000D01*
X33800000Y-36800000D02*
X34150000Y-37150000D01*
X21552711Y-49647289D02*
X24500000Y-46700000D01*
X34150000Y-37150000D02*
X34150000Y-37900000D01*
X22475000Y-65075000D02*
X21552711Y-64152711D01*
X33800000Y-33800000D02*
X33800000Y-36800000D01*
X29350000Y-32200000D02*
X32200000Y-32200000D01*
X23000000Y-65075000D02*
X22475000Y-65075000D01*
X24500000Y-46700000D02*
X24500000Y-37050000D01*
X24500000Y-37050000D02*
X29350000Y-32200000D01*
X21552711Y-64152711D02*
X21552711Y-49647289D01*
X32200000Y-32200000D02*
X33800000Y-33800000D01*
X24000000Y-71000000D02*
X31400000Y-71000000D01*
X32300000Y-68500000D02*
X34400000Y-66400000D01*
X24600000Y-68500000D02*
X32300000Y-68500000D01*
X23000000Y-66900000D02*
X24600000Y-68500000D01*
X24600000Y-66900000D02*
X25700000Y-68000000D01*
X31200000Y-68000000D02*
X33600000Y-65600000D01*
X25700000Y-68000000D02*
X31200000Y-68000000D01*
X30804890Y-66912500D02*
X32845090Y-64872300D01*
X26200000Y-66912500D02*
X30804890Y-66912500D01*
G04 #@! TA.AperFunction,Conductor*
G36*
X37196714Y-70815468D02*
G01*
X37201136Y-70820379D01*
X37355637Y-70932631D01*
X37361665Y-70935315D01*
X37361667Y-70935316D01*
X37506951Y-71000000D01*
X37530101Y-71010307D01*
X37623502Y-71030160D01*
X37710445Y-71048641D01*
X37710450Y-71048641D01*
X37716902Y-71050013D01*
X37907876Y-71050013D01*
X37914328Y-71048641D01*
X37914333Y-71048641D01*
X38001276Y-71030160D01*
X38094677Y-71010307D01*
X38117827Y-71000000D01*
X38263111Y-70935316D01*
X38263113Y-70935315D01*
X38269141Y-70932631D01*
X38423642Y-70820379D01*
X38428064Y-70815468D01*
X38532032Y-70700000D01*
X44374000Y-70700000D01*
X44442121Y-70720002D01*
X44488614Y-70773658D01*
X44500000Y-70826000D01*
X44500000Y-74574000D01*
X44479998Y-74642121D01*
X44426342Y-74688614D01*
X44374000Y-74700000D01*
X20334000Y-74700000D01*
X20265879Y-74679998D01*
X20219386Y-74626342D01*
X20208000Y-74574000D01*
X20208000Y-71826000D01*
X20228002Y-71757879D01*
X20281658Y-71711386D01*
X20334000Y-71700000D01*
X22451279Y-71700000D01*
X22477476Y-71702754D01*
X22498047Y-71707127D01*
X22498060Y-71707128D01*
X22504513Y-71708500D01*
X22695487Y-71708500D01*
X22701940Y-71707128D01*
X22701953Y-71707127D01*
X22722524Y-71702754D01*
X22748721Y-71700000D01*
X23376895Y-71700000D01*
X23450956Y-71724064D01*
X23537906Y-71787237D01*
X23543248Y-71791118D01*
X23549276Y-71793802D01*
X23549278Y-71793803D01*
X23711681Y-71866109D01*
X23717712Y-71868794D01*
X23811112Y-71888647D01*
X23898056Y-71907128D01*
X23898061Y-71907128D01*
X23904513Y-71908500D01*
X24095487Y-71908500D01*
X24101939Y-71907128D01*
X24101944Y-71907128D01*
X24188888Y-71888647D01*
X24282288Y-71868794D01*
X24288319Y-71866109D01*
X24450722Y-71793803D01*
X24450724Y-71793802D01*
X24456752Y-71791118D01*
X24462094Y-71787237D01*
X24549044Y-71724064D01*
X24623105Y-71700000D01*
X30776895Y-71700000D01*
X30850956Y-71724064D01*
X30937906Y-71787237D01*
X30943248Y-71791118D01*
X30949276Y-71793802D01*
X30949278Y-71793803D01*
X31111681Y-71866109D01*
X31117712Y-71868794D01*
X31211112Y-71888647D01*
X31298056Y-71907128D01*
X31298061Y-71907128D01*
X31304513Y-71908500D01*
X31495487Y-71908500D01*
X31501939Y-71907128D01*
X31501944Y-71907128D01*
X31588888Y-71888647D01*
X31682288Y-71868794D01*
X31688319Y-71866109D01*
X31850722Y-71793803D01*
X31850724Y-71793802D01*
X31856752Y-71791118D01*
X31862094Y-71787237D01*
X31949044Y-71724064D01*
X32023105Y-71700000D01*
X33500000Y-71700000D01*
X33500000Y-70700000D01*
X37092746Y-70700000D01*
X37196714Y-70815468D01*
G37*
G04 #@! TD.AperFunction*
G04 #@! TA.AperFunction,Conductor*
G36*
X41856192Y-61200479D02*
G01*
X42005000Y-61213498D01*
X42153808Y-61200479D01*
X42164790Y-61200000D01*
X44174000Y-61200000D01*
X44242121Y-61220002D01*
X44288614Y-61273658D01*
X44300000Y-61326000D01*
X44300000Y-63215990D01*
X44279998Y-63284111D01*
X44226342Y-63330604D01*
X44156068Y-63340708D01*
X44108165Y-63323423D01*
X43936366Y-63218145D01*
X43936365Y-63218145D01*
X43932704Y-63215901D01*
X43928768Y-63214173D01*
X43685873Y-63107549D01*
X43685869Y-63107548D01*
X43681945Y-63105825D01*
X43418566Y-63030800D01*
X43414324Y-63030196D01*
X43414318Y-63030195D01*
X43213834Y-63001662D01*
X43147443Y-62992213D01*
X43003589Y-62991460D01*
X42877877Y-62990802D01*
X42877871Y-62990802D01*
X42873591Y-62990780D01*
X42869347Y-62991339D01*
X42869343Y-62991339D01*
X42750302Y-63007011D01*
X42602078Y-63026525D01*
X42597938Y-63027658D01*
X42597936Y-63027658D01*
X42525008Y-63047609D01*
X42337928Y-63098788D01*
X42333980Y-63100472D01*
X42089982Y-63204546D01*
X42089978Y-63204548D01*
X42086030Y-63206232D01*
X42014453Y-63249070D01*
X41854725Y-63344664D01*
X41854721Y-63344667D01*
X41851043Y-63346868D01*
X41637318Y-63518094D01*
X41448808Y-63716742D01*
X41289002Y-63939136D01*
X41160857Y-64181161D01*
X41159385Y-64185184D01*
X41159383Y-64185188D01*
X41068214Y-64434317D01*
X41066743Y-64438337D01*
X41008404Y-64705907D01*
X40986917Y-64978918D01*
X41002682Y-65252320D01*
X41003507Y-65256525D01*
X41003508Y-65256533D01*
X41014966Y-65314933D01*
X41055405Y-65521053D01*
X41056792Y-65525103D01*
X41056793Y-65525108D01*
X41137449Y-65760684D01*
X41144112Y-65780144D01*
X41267160Y-66024799D01*
X41269586Y-66028328D01*
X41269589Y-66028334D01*
X41269665Y-66028444D01*
X41422274Y-66250490D01*
X41606582Y-66453043D01*
X41816675Y-66628707D01*
X41820316Y-66630991D01*
X42045024Y-66771951D01*
X42045028Y-66771953D01*
X42048664Y-66774234D01*
X42116544Y-66804883D01*
X42294345Y-66885164D01*
X42294349Y-66885166D01*
X42298257Y-66886930D01*
X42302377Y-66888150D01*
X42302376Y-66888150D01*
X42556723Y-66963491D01*
X42556727Y-66963492D01*
X42560836Y-66964709D01*
X42565070Y-66965357D01*
X42565075Y-66965358D01*
X42827298Y-67005483D01*
X42827300Y-67005483D01*
X42831540Y-67006132D01*
X42970912Y-67008322D01*
X43101071Y-67010367D01*
X43101077Y-67010367D01*
X43105362Y-67010434D01*
X43377235Y-66977534D01*
X43642127Y-66908041D01*
X43646087Y-66906401D01*
X43646092Y-66906399D01*
X43768632Y-66855641D01*
X43895136Y-66803241D01*
X43898835Y-66801079D01*
X43898846Y-66801074D01*
X44110430Y-66677434D01*
X44179336Y-66660335D01*
X44246549Y-66683204D01*
X44290728Y-66738781D01*
X44300000Y-66786222D01*
X44300000Y-71700000D01*
X33500000Y-71700000D01*
X33500000Y-69859500D01*
X33520002Y-69791379D01*
X33573658Y-69744886D01*
X33626000Y-69733500D01*
X35085406Y-69733500D01*
X35153527Y-69753502D01*
X35174501Y-69770405D01*
X35409779Y-70005683D01*
X35422619Y-70020716D01*
X35434528Y-70037107D01*
X35440634Y-70042158D01*
X35468605Y-70065298D01*
X35477384Y-70073288D01*
X35796343Y-70392247D01*
X35803887Y-70400537D01*
X35808000Y-70407018D01*
X35813777Y-70412443D01*
X35857667Y-70453658D01*
X35860509Y-70456413D01*
X35880230Y-70476134D01*
X35883425Y-70478612D01*
X35892447Y-70486318D01*
X35924679Y-70516586D01*
X35931628Y-70520406D01*
X35942432Y-70526346D01*
X35958956Y-70537199D01*
X35974959Y-70549613D01*
X36015543Y-70567176D01*
X36026173Y-70572383D01*
X36064940Y-70593695D01*
X36072617Y-70595666D01*
X36072622Y-70595668D01*
X36084558Y-70598732D01*
X36103266Y-70605137D01*
X36121855Y-70613181D01*
X36129683Y-70614421D01*
X36129690Y-70614423D01*
X36165524Y-70620099D01*
X36177144Y-70622505D01*
X36212289Y-70631528D01*
X36219970Y-70633500D01*
X36240224Y-70633500D01*
X36259934Y-70635051D01*
X36279943Y-70638220D01*
X36287835Y-70637474D01*
X36323961Y-70634059D01*
X36335819Y-70633500D01*
X36977339Y-70633500D01*
X37045460Y-70653502D01*
X37072599Y-70679132D01*
X37073349Y-70678457D01*
X37201136Y-70820379D01*
X37355637Y-70932631D01*
X37361665Y-70935315D01*
X37361667Y-70935316D01*
X37524070Y-71007622D01*
X37530101Y-71010307D01*
X37623502Y-71030160D01*
X37710445Y-71048641D01*
X37710450Y-71048641D01*
X37716902Y-71050013D01*
X37907876Y-71050013D01*
X37914328Y-71048641D01*
X37914333Y-71048641D01*
X38001276Y-71030160D01*
X38094677Y-71010307D01*
X38100708Y-71007622D01*
X38263111Y-70935316D01*
X38263113Y-70935315D01*
X38269141Y-70932631D01*
X38423642Y-70820379D01*
X38551429Y-70678457D01*
X38632985Y-70537199D01*
X38643612Y-70518792D01*
X38643613Y-70518791D01*
X38646916Y-70513069D01*
X38705931Y-70331441D01*
X38725893Y-70141513D01*
X38717883Y-70065298D01*
X38706621Y-69958148D01*
X38706621Y-69958146D01*
X38705931Y-69951585D01*
X38646916Y-69769957D01*
X38625868Y-69733500D01*
X38554730Y-69610287D01*
X38551429Y-69604569D01*
X38423642Y-69462647D01*
X38269141Y-69350395D01*
X38263113Y-69347711D01*
X38263111Y-69347710D01*
X38100708Y-69275404D01*
X38100707Y-69275404D01*
X38094677Y-69272719D01*
X38001276Y-69252866D01*
X37914333Y-69234385D01*
X37914328Y-69234385D01*
X37907876Y-69233013D01*
X37716902Y-69233013D01*
X37710450Y-69234385D01*
X37710445Y-69234385D01*
X37623502Y-69252866D01*
X37530101Y-69272719D01*
X37524071Y-69275404D01*
X37524070Y-69275404D01*
X37361667Y-69347710D01*
X37361665Y-69347711D01*
X37355637Y-69350395D01*
X37355618Y-69350353D01*
X37295361Y-69366500D01*
X36659500Y-69366500D01*
X36591379Y-69346498D01*
X36544886Y-69292842D01*
X36533500Y-69240500D01*
X36533500Y-63478767D01*
X36534027Y-63467584D01*
X36535702Y-63460091D01*
X36533562Y-63392014D01*
X36533500Y-63388055D01*
X36533500Y-63360144D01*
X36532995Y-63356144D01*
X36532062Y-63344301D01*
X36530922Y-63308030D01*
X36530673Y-63300111D01*
X36525021Y-63280657D01*
X36521013Y-63261300D01*
X36519468Y-63249070D01*
X36519468Y-63249069D01*
X36518474Y-63241203D01*
X36515554Y-63233827D01*
X36514212Y-63230436D01*
X36513672Y-63226496D01*
X36513584Y-63226152D01*
X36513624Y-63226142D01*
X36506054Y-63170884D01*
X36512814Y-63106565D01*
X36513504Y-63100000D01*
X36502173Y-62992191D01*
X36494232Y-62916635D01*
X36494232Y-62916633D01*
X36493542Y-62910072D01*
X36457269Y-62798436D01*
X36455241Y-62727469D01*
X36491904Y-62666671D01*
X36555616Y-62635345D01*
X36577102Y-62633500D01*
X38421233Y-62633500D01*
X38432416Y-62634027D01*
X38439909Y-62635702D01*
X38447835Y-62635453D01*
X38447836Y-62635453D01*
X38507986Y-62633562D01*
X38511945Y-62633500D01*
X38539856Y-62633500D01*
X38543791Y-62633003D01*
X38543856Y-62632995D01*
X38555693Y-62632062D01*
X38587951Y-62631048D01*
X38591970Y-62630922D01*
X38599889Y-62630673D01*
X38619343Y-62625021D01*
X38638700Y-62621013D01*
X38650930Y-62619468D01*
X38650931Y-62619468D01*
X38658797Y-62618474D01*
X38666168Y-62615555D01*
X38666170Y-62615555D01*
X38699912Y-62602196D01*
X38711142Y-62598351D01*
X38745983Y-62588229D01*
X38745984Y-62588229D01*
X38753593Y-62586018D01*
X38760412Y-62581985D01*
X38760417Y-62581983D01*
X38771028Y-62575707D01*
X38788776Y-62567012D01*
X38807617Y-62559552D01*
X38843387Y-62533564D01*
X38853307Y-62527048D01*
X38884535Y-62508580D01*
X38884538Y-62508578D01*
X38891362Y-62504542D01*
X38905683Y-62490221D01*
X38920717Y-62477380D01*
X38930694Y-62470131D01*
X38937107Y-62465472D01*
X38942157Y-62459368D01*
X38942162Y-62459363D01*
X38965293Y-62431402D01*
X38973283Y-62422621D01*
X39857258Y-61538647D01*
X39865537Y-61531113D01*
X39872018Y-61527000D01*
X39918644Y-61477348D01*
X39921398Y-61474507D01*
X39941135Y-61454770D01*
X39943615Y-61451573D01*
X39951320Y-61442551D01*
X39976159Y-61416100D01*
X39981586Y-61410321D01*
X39985405Y-61403375D01*
X39985407Y-61403372D01*
X39991348Y-61392566D01*
X40002199Y-61376047D01*
X40009758Y-61366301D01*
X40014614Y-61360041D01*
X40017759Y-61352772D01*
X40017762Y-61352768D01*
X40032174Y-61319463D01*
X40037391Y-61308813D01*
X40058695Y-61270060D01*
X40058695Y-61270059D01*
X40060516Y-61271060D01*
X40097525Y-61223637D01*
X40170995Y-61200000D01*
X41845210Y-61200000D01*
X41856192Y-61200479D01*
G37*
G04 #@! TD.AperFunction*
M02*
