G04 #@! TF.GenerationSoftware,KiCad,Pcbnew,(6.0.0)*
G04 #@! TF.CreationDate,2022-01-19T21:14:50+07:00*
G04 #@! TF.ProjectId,NixieClock,4e697869-6543-46c6-9f63-6b2e6b696361,rev?*
G04 #@! TF.SameCoordinates,Original*
G04 #@! TF.FileFunction,Legend,Bot*
G04 #@! TF.FilePolarity,Positive*
%FSLAX46Y46*%
G04 Gerber Fmt 4.6, Leading zero omitted, Abs format (unit mm)*
G04 Created by KiCad (PCBNEW (6.0.0)) date 2022-01-19 21:14:50*
%MOMM*%
%LPD*%
G01*
G04 APERTURE LIST*
G04 Aperture macros list*
%AMRoundRect*
0 Rectangle with rounded corners*
0 $1 Rounding radius*
0 $2 $3 $4 $5 $6 $7 $8 $9 X,Y pos of 4 corners*
0 Add a 4 corners polygon primitive as box body*
4,1,4,$2,$3,$4,$5,$6,$7,$8,$9,$2,$3,0*
0 Add four circle primitives for the rounded corners*
1,1,$1+$1,$2,$3*
1,1,$1+$1,$4,$5*
1,1,$1+$1,$6,$7*
1,1,$1+$1,$8,$9*
0 Add four rect primitives between the rounded corners*
20,1,$1+$1,$2,$3,$4,$5,0*
20,1,$1+$1,$4,$5,$6,$7,0*
20,1,$1+$1,$6,$7,$8,$9,0*
20,1,$1+$1,$8,$9,$2,$3,0*%
G04 Aperture macros list end*
G04 #@! TA.AperFunction,Profile*
%ADD10C,0.050000*%
G04 #@! TD*
%ADD11C,0.150000*%
%ADD12C,0.120000*%
%ADD13C,0.381000*%
%ADD14C,1.500000*%
%ADD15R,1.600000X1.600000*%
%ADD16O,1.600000X1.600000*%
%ADD17C,1.400000*%
%ADD18O,1.400000X1.400000*%
%ADD19RoundRect,0.150000X0.150000X-0.587500X0.150000X0.587500X-0.150000X0.587500X-0.150000X-0.587500X0*%
%ADD20RoundRect,0.250000X-0.350000X-0.450000X0.350000X-0.450000X0.350000X0.450000X-0.350000X0.450000X0*%
%ADD21RoundRect,0.250000X-0.250000X-2.500000X0.250000X-2.500000X0.250000X2.500000X-0.250000X2.500000X0*%
%ADD22RoundRect,0.250000X-0.550000X-1.250000X0.550000X-1.250000X0.550000X1.250000X-0.550000X1.250000X0*%
%ADD23RoundRect,0.150000X-0.150000X0.825000X-0.150000X-0.825000X0.150000X-0.825000X0.150000X0.825000X0*%
%ADD24RoundRect,0.250000X-0.625000X0.400000X-0.625000X-0.400000X0.625000X-0.400000X0.625000X0.400000X0*%
%ADD25RoundRect,0.250000X0.625000X-0.400000X0.625000X0.400000X-0.625000X0.400000X-0.625000X-0.400000X0*%
G04 APERTURE END LIST*
D10*
X45700000Y-80300000D02*
X19700000Y-80300000D01*
X19700000Y-80300000D02*
X19700000Y-28300000D01*
X19700000Y-28300000D02*
X45700000Y-28300000D01*
X45700000Y-28300000D02*
X45700000Y-80300000D01*
D11*
X36295238Y-64147619D02*
X36390476Y-64100000D01*
X36485714Y-64004761D01*
X36628571Y-63861904D01*
X36723809Y-63814285D01*
X36819047Y-63814285D01*
X36771428Y-64052380D02*
X36866666Y-64004761D01*
X36961904Y-63909523D01*
X37009523Y-63719047D01*
X37009523Y-63385714D01*
X36961904Y-63195238D01*
X36866666Y-63100000D01*
X36771428Y-63052380D01*
X36580952Y-63052380D01*
X36485714Y-63100000D01*
X36390476Y-63195238D01*
X36342857Y-63385714D01*
X36342857Y-63719047D01*
X36390476Y-63909523D01*
X36485714Y-64004761D01*
X36580952Y-64052380D01*
X36771428Y-64052380D01*
X35390476Y-64052380D02*
X35961904Y-64052380D01*
X35676190Y-64052380D02*
X35676190Y-63052380D01*
X35771428Y-63195238D01*
X35866666Y-63290476D01*
X35961904Y-63338095D01*
X36366666Y-69052380D02*
X36700000Y-68576190D01*
X36938095Y-69052380D02*
X36938095Y-68052380D01*
X36557142Y-68052380D01*
X36461904Y-68100000D01*
X36414285Y-68147619D01*
X36366666Y-68242857D01*
X36366666Y-68385714D01*
X36414285Y-68480952D01*
X36461904Y-68528571D01*
X36557142Y-68576190D01*
X36938095Y-68576190D01*
X35461904Y-68052380D02*
X35938095Y-68052380D01*
X35985714Y-68528571D01*
X35938095Y-68480952D01*
X35842857Y-68433333D01*
X35604761Y-68433333D01*
X35509523Y-68480952D01*
X35461904Y-68528571D01*
X35414285Y-68623809D01*
X35414285Y-68861904D01*
X35461904Y-68957142D01*
X35509523Y-69004761D01*
X35604761Y-69052380D01*
X35842857Y-69052380D01*
X35938095Y-69004761D01*
X35985714Y-68957142D01*
X33233333Y-70452380D02*
X33233333Y-71166666D01*
X33280952Y-71309523D01*
X33376190Y-71404761D01*
X33519047Y-71452380D01*
X33614285Y-71452380D01*
X32233333Y-71452380D02*
X32804761Y-71452380D01*
X32519047Y-71452380D02*
X32519047Y-70452380D01*
X32614285Y-70595238D01*
X32709523Y-70690476D01*
X32804761Y-70738095D01*
X36366666Y-67052380D02*
X36700000Y-66576190D01*
X36938095Y-67052380D02*
X36938095Y-66052380D01*
X36557142Y-66052380D01*
X36461904Y-66100000D01*
X36414285Y-66147619D01*
X36366666Y-66242857D01*
X36366666Y-66385714D01*
X36414285Y-66480952D01*
X36461904Y-66528571D01*
X36557142Y-66576190D01*
X36938095Y-66576190D01*
X35509523Y-66052380D02*
X35700000Y-66052380D01*
X35795238Y-66100000D01*
X35842857Y-66147619D01*
X35938095Y-66290476D01*
X35985714Y-66480952D01*
X35985714Y-66861904D01*
X35938095Y-66957142D01*
X35890476Y-67004761D01*
X35795238Y-67052380D01*
X35604761Y-67052380D01*
X35509523Y-67004761D01*
X35461904Y-66957142D01*
X35414285Y-66861904D01*
X35414285Y-66623809D01*
X35461904Y-66528571D01*
X35509523Y-66480952D01*
X35604761Y-66433333D01*
X35795238Y-66433333D01*
X35890476Y-66480952D01*
X35938095Y-66528571D01*
X35985714Y-66623809D01*
X32552380Y-65238095D02*
X33361904Y-65238095D01*
X33457142Y-65285714D01*
X33504761Y-65333333D01*
X33552380Y-65428571D01*
X33552380Y-65619047D01*
X33504761Y-65714285D01*
X33457142Y-65761904D01*
X33361904Y-65809523D01*
X32552380Y-65809523D01*
X32647619Y-66238095D02*
X32600000Y-66285714D01*
X32552380Y-66380952D01*
X32552380Y-66619047D01*
X32600000Y-66714285D01*
X32647619Y-66761904D01*
X32742857Y-66809523D01*
X32838095Y-66809523D01*
X32980952Y-66761904D01*
X33552380Y-66190476D01*
X33552380Y-66809523D01*
X44452380Y-43233333D02*
X43976190Y-42900000D01*
X44452380Y-42661904D02*
X43452380Y-42661904D01*
X43452380Y-43042857D01*
X43500000Y-43138095D01*
X43547619Y-43185714D01*
X43642857Y-43233333D01*
X43785714Y-43233333D01*
X43880952Y-43185714D01*
X43928571Y-43138095D01*
X43976190Y-43042857D01*
X43976190Y-42661904D01*
X43452380Y-43566666D02*
X43452380Y-44233333D01*
X44452380Y-43804761D01*
X44452380Y-38233333D02*
X43976190Y-37900000D01*
X44452380Y-37661904D02*
X43452380Y-37661904D01*
X43452380Y-38042857D01*
X43500000Y-38138095D01*
X43547619Y-38185714D01*
X43642857Y-38233333D01*
X43785714Y-38233333D01*
X43880952Y-38185714D01*
X43928571Y-38138095D01*
X43976190Y-38042857D01*
X43976190Y-37661904D01*
X44452380Y-39185714D02*
X44452380Y-38614285D01*
X44452380Y-38900000D02*
X43452380Y-38900000D01*
X43595238Y-38804761D01*
X43690476Y-38709523D01*
X43738095Y-38614285D01*
D12*
X40560000Y-63700000D02*
X40560000Y-63050000D01*
X37440000Y-63700000D02*
X37440000Y-64350000D01*
X40560000Y-63700000D02*
X40560000Y-65375000D01*
X37440000Y-63700000D02*
X37440000Y-63050000D01*
X38772936Y-69435000D02*
X39227064Y-69435000D01*
X38772936Y-67965000D02*
X39227064Y-67965000D01*
X45085000Y-75490000D02*
X45085000Y-74640000D01*
X45085000Y-74640000D02*
X42760000Y-74640000D01*
X45085000Y-79860000D02*
X45085000Y-79010000D01*
X20915000Y-79860000D02*
X45085000Y-79860000D01*
X20915000Y-74640000D02*
X23240000Y-74640000D01*
X23240000Y-74640000D02*
X23240000Y-72250000D01*
X20915000Y-79010000D02*
X20915000Y-79860000D01*
X20915000Y-75490000D02*
X20915000Y-74640000D01*
X38772936Y-67435000D02*
X39227064Y-67435000D01*
X38772936Y-65965000D02*
X39227064Y-65965000D01*
X21940000Y-66000000D02*
X21940000Y-62550000D01*
X32060000Y-66000000D02*
X32060000Y-67950000D01*
X21940000Y-66000000D02*
X21940000Y-67950000D01*
X32060000Y-66000000D02*
X32060000Y-64050000D01*
D13*
X26699160Y-46400660D02*
X25500280Y-45600560D01*
X26297840Y-48399640D02*
X25698400Y-47701140D01*
X30499000Y-48994000D02*
X25800000Y-42009000D01*
X21101000Y-48994000D02*
X30499000Y-48994000D01*
X26297840Y-48399640D02*
X25098960Y-45300840D01*
X25800000Y-42009000D02*
X21101000Y-48994000D01*
X25899060Y-43400920D02*
X26699160Y-46400660D01*
X25500280Y-45600560D02*
X26297840Y-48399640D01*
X25098960Y-45300840D02*
X25698400Y-45699620D01*
X26699160Y-46400660D02*
X25398680Y-43599040D01*
X26297840Y-48399640D02*
X26399440Y-47500480D01*
D12*
X43110000Y-42672936D02*
X43110000Y-44127064D01*
X41290000Y-42672936D02*
X41290000Y-44127064D01*
X41290000Y-39127064D02*
X41290000Y-37672936D01*
X43110000Y-39127064D02*
X43110000Y-37672936D01*
%LPC*%
D14*
X31025000Y-34786000D03*
X29286190Y-36524671D03*
X28649671Y-38899810D03*
X29286000Y-41275000D03*
X31024671Y-43013810D03*
X33399810Y-43650329D03*
X35775000Y-43014000D03*
X37513810Y-41275329D03*
X38150329Y-38900190D03*
X37514000Y-36525000D03*
X35775329Y-34786190D03*
D15*
X24225000Y-59900000D03*
D16*
X26765000Y-59900000D03*
X29305000Y-59900000D03*
X31845000Y-59900000D03*
X34385000Y-59900000D03*
X36925000Y-59900000D03*
X39465000Y-59900000D03*
X42005000Y-59900000D03*
X42005000Y-52280000D03*
X39465000Y-52280000D03*
X36925000Y-52280000D03*
X34385000Y-52280000D03*
X31845000Y-52280000D03*
X29305000Y-52280000D03*
X26765000Y-52280000D03*
X24225000Y-52280000D03*
D17*
X36990000Y-48700000D03*
D18*
X44610000Y-48700000D03*
D19*
X39950000Y-64637500D03*
X38050000Y-64637500D03*
X39000000Y-62762500D03*
D20*
X38000000Y-68700000D03*
X40000000Y-68700000D03*
D21*
X24000000Y-75000000D03*
X26000000Y-75000000D03*
X28000000Y-75000000D03*
X30000000Y-75000000D03*
X32000000Y-75000000D03*
X34000000Y-75000000D03*
X36000000Y-75000000D03*
X38000000Y-75000000D03*
X40000000Y-75000000D03*
X42000000Y-75000000D03*
D22*
X21600000Y-77250000D03*
X44400000Y-77250000D03*
D20*
X38000000Y-66700000D03*
X40000000Y-66700000D03*
D23*
X22555000Y-63525000D03*
X23825000Y-63525000D03*
X25095000Y-63525000D03*
X26365000Y-63525000D03*
X27635000Y-63525000D03*
X28905000Y-63525000D03*
X30175000Y-63525000D03*
X31445000Y-63525000D03*
X31445000Y-68475000D03*
X30175000Y-68475000D03*
X28905000Y-68475000D03*
X27635000Y-68475000D03*
X26365000Y-68475000D03*
X25095000Y-68475000D03*
X23825000Y-68475000D03*
X22555000Y-68475000D03*
D24*
X42200000Y-41850000D03*
X42200000Y-44950000D03*
D25*
X42200000Y-39950000D03*
X42200000Y-36850000D03*
M02*
